<svg width="40" height="31" viewBox="0 0 40 31" fill="currentColor" xmlns="http://www.w3.org/2000/svg"><path d="M33.884 2.593A32.6 32.6 0 0 0 25.63 0a24 24 0 0 0-1.057 2.195 30.3 30.3 0 0 0-9.145 0A24 24 0 0 0 14.359 0 32.5 32.5 0 0 0 6.1 2.6C.878 10.492-.538 18.188.17 25.774c3.464 2.587 6.82 4.159 10.121 5.187a25 25 0 0 0 2.168-3.57 21.3 21.3 0 0 1-3.414-1.662q.43-.318.837-.662c6.582 3.079 13.733 3.079 20.236 0q.412.344.837.662a21.3 21.3 0 0 1-3.42 1.665 25 25 0 0 0 2.168 3.57c3.303-1.028 6.663-2.6 10.127-5.19.83-8.795-1.419-16.42-5.946-23.18M13.355 21.11c-1.976 0-3.596-1.845-3.596-4.091s1.586-4.094 3.596-4.094 3.63 1.845 3.596 4.094c.003 2.246-1.585 4.09-3.596 4.09m13.29 0c-1.976 0-3.596-1.845-3.596-4.091s1.585-4.094 3.596-4.094c2.01 0 3.63 1.845 3.596 4.094 0 2.246-1.586 4.09-3.596 4.09"/></svg>
