<svg width="40" height="40" viewBox="0 0 40 40" fill="currentColor" xmlns="http://www.w3.org/2000/svg"><path d="M20 0C8.95 0 0 8.955 0 20c0 8.838 5.73 16.333 13.675 18.975 1 .188 1.367-.43 1.367-.962 0-.475-.017-1.733-.025-3.4C9.453 35.82 8.28 31.93 8.28 31.93c-.91-2.308-2.225-2.925-2.225-2.925-1.812-1.24.14-1.215.14-1.215 2.008.14 3.063 2.06 3.063 2.06 1.784 3.058 4.682 2.175 5.825 1.663.18-1.293.695-2.175 1.267-2.675-4.442-.5-9.11-2.22-9.11-9.883 0-2.183.775-3.967 2.058-5.367-.225-.505-.9-2.538.175-5.293 0 0 1.675-.537 5.5 2.05 1.6-.445 3.3-.665 5-.675 1.7.01 3.4.23 5 .675 3.8-2.587 5.475-2.05 5.475-2.05 1.075 2.755.4 4.788.2 5.293 1.275 1.4 2.05 3.184 2.05 5.367 0 7.683-4.675 9.375-9.125 9.867.7.6 1.35 1.826 1.35 3.7 0 2.676-.025 4.826-.025 5.476 0 .525.35 1.15 1.375.95C34.275 36.325 40 28.825 40 20 40 8.955 31.045 0 20 0"/></svg>
