<svg width="40" height="40" viewBox="0 0 40 40" fill="currentColor" xmlns="http://www.w3.org/2000/svg"><path d="M35.238 0H4.762A4.764 4.764 0 0 0 0 4.762v30.476A4.764 4.764 0 0 0 4.762 40h30.476A4.764 4.764 0 0 0 40 35.238V4.762A4.764 4.764 0 0 0 35.238 0M12.381 15.238v18.095H6.667V15.238zM6.667 9.971c0-1.333 1.143-2.352 2.857-2.352s2.79 1.02 2.857 2.352c0 1.334-1.067 2.41-2.857 2.41-1.714 0-2.857-1.076-2.857-2.41m26.666 23.362H27.62V23.81c0-1.905-.952-3.81-3.333-3.848h-.077c-2.304 0-3.257 1.962-3.257 3.848v9.523h-5.714V15.238h5.714v2.438s1.838-2.438 5.534-2.438c3.78 0 6.847 2.6 6.847 7.867z"/></svg>
