<svg width="75" height="75" viewBox="0 0 75 75" fill="none" xmlns="http://www.w3.org/2000/svg"><path d="M73.698 37.099c0 20.213-16.387 36.599-36.599 36.599m36.599-36.6C73.698 16.887 57.31.5 37.099.5m36.599 36.599h-24.4M37.1 73.698c-20.214 0-36.6-16.386-36.6-36.6m36.6 36.6-12.2-36.6m12.2 36.6 12.198-36.6M37.1 73.699V.5M.5 37.099C.5 16.886 16.886.5 37.1.5M.5 37.099h24.4M37.1.5v36.599M37.1.5 24.9 37.099M37.1.5l12.198 36.599m22.315 12.2H45.252M32.575 61.498H9.819m54.6 0H41.647m-12.839-12.2H2.584M18.799 5.404l6.13 10.617M5.403 18.8l10.617 6.13M55.398 5.402 49.234 16.08m19.56 2.72-10.618 6.13M41.307 13.124C52.742 15.12 61.435 25.094 61.435 37.1zM12.763 37.1c0-12.006 8.692-21.98 20.127-23.974z" stroke="#fff" stroke-linecap="round" stroke-linejoin="round"/></svg>
