<svg width="75" height="75" viewBox="0 0 75 75" fill="none" xmlns="http://www.w3.org/2000/svg">
<path d="M73.6975 37.0988C73.6975 57.3119 57.3114 73.6975 37.0991 73.6975M73.6975 37.0988C73.6975 16.8856 57.3114 0.5 37.0991 0.5M73.6975 37.0988H49.2981M37.0991 73.6975C16.8855 73.6975 0.5 57.3119 0.5 37.0988M37.0991 73.6975L24.8994 37.0988M37.0991 73.6975L49.2981 37.0988M37.0991 73.6975V0.5M0.5 37.0988C0.5 16.8856 16.8855 0.5 37.0991 0.5M0.5 37.0988H24.8994M37.0991 0.5V37.0988M37.0991 0.5L24.8994 37.0988M37.0991 0.5L49.2981 37.0988M71.6126 49.2986H45.252M32.5748 61.4977H9.81919M64.4185 61.4977H41.6477M28.8092 49.2986H2.58366M18.7992 5.40297L24.9284 16.0196M5.40359 18.7994L16.0214 24.9293M55.3983 5.40297L49.2343 16.0795M68.7939 18.7994L58.1761 24.9293M41.3073 13.1252C52.7417 15.1187 61.4346 25.0939 61.4346 37.0988L41.3073 13.1252ZM12.7629 37.0988C12.7629 25.0932 21.4552 15.1187 32.8903 13.1246L12.7629 37.0988Z" stroke="white" stroke-linecap="round" stroke-linejoin="round"/>
</svg>
