<svg width="302" height="382" viewBox="0 0 302 382" fill="none" xmlns="http://www.w3.org/2000/svg">
<path d="M106.283 6.53455C44.7199 25.6434 0 83.1712 0 151.171C0 195.596 15.3482 226.433 44.2324 262.235L130.8 59.5951L106.283 6.53455Z" fill="#F77676"/>
<path d="M93.9431 318.151C87.3027 310.968 80.9909 304.143 75.0151 297.594L76.2375 298.119L103.674 233.895C105.364 232.578 107.201 231.319 109.181 230.122C122.395 222.127 140.787 217.78 159.054 217.78C177.313 217.78 195.404 222.125 208.323 230.061C208.924 230.431 209.513 230.805 210.087 231.186L236.11 287.508C227.541 297.08 218.179 307.202 208.054 318.153C191.132 336.456 172.069 357.071 151 381.275C129.932 357.071 110.873 336.46 93.9483 318.157L93.9431 318.151Z" fill="#F77676"/>
<path d="M189.494 186.622L155.395 112.823L123.364 187.801C135.154 184.851 147.367 183.466 159.053 183.466C169.047 183.466 179.386 184.479 189.494 186.622Z" fill="#F77676"/>
<path d="M271.713 243.745C291.566 215.191 302 187.8 302 151.171C302 70.2841 238.724 4.21419 159.089 0L271.713 243.745Z" fill="#F77676"/>
</svg>
