<svg width="101" height="72" viewBox="0 0 101 72" fill="none" xmlns="http://www.w3.org/2000/svg"><path fill-rule="evenodd" clip-rule="evenodd" d="m11.76 33.338-.042.142-.014.16q.013.065.147.152zm-.177-.416q-.18.035-.161.12l.15.174zm.099 1.53a.36.36 0 0 0 .113-.358.4.4 0 0 1-.057-.17q-.183.126-.145.32zm2.35 11.108q-.05-.012-.22.064.09-.017.13.066.114.112.155.139.04.026.139-.06-.156-.195-.205-.209m-2.367-10.5-.115-.225-.063.034.093.23zm1.22 6.185.02-.015q.021-.015.021-.127l-.192.08q.004.023-.018.027zm-1.471-6.743a.7.7 0 0 0-.219-.049q-.09.017-.122.203zm2.423 13.091q-.054-.035-.058-.056a1 1 0 0 0-.112.133q-.036.053.008.155zM10.93 33.718q.018-.026.063-.035l-.19-.48-.107.043zm2.923 14.881a.3.3 0 0 0 .059-.168q-.14.116-.211.22-.036.051.097.138zm-2.578-13.51q-.026-.018-.04-.083l-.264.184a1 1 0 0 0 .196.053q.072.009.126-.068.017-.026-.018-.087m3.164 12.503-.05-.013q-.089.017-.107.042l-.151.051q.035-.05.01-.181a.4.4 0 0 1-.004-.19q.022-.06.157-.086l.24.27.1-.423-.469-.024.132-.384a.9.9 0 0 1-.265-.163q-.06-.068-.02-.21l.216.028q.066-.013.143-.095l-.187-.122-.492.093.043.216-.27-.196-.163.345.17-.077q.156-.03.476.18l-.21-.006-.01.294a.46.46 0 0 0-.218-.161.8.8 0 0 1-.299-.101l.261.49.326.005.195.39-.064.146.202-.038.334.162zm-1.243-1.449.037-.051-.12-.135-.063.034zm1.787 3.23-.196-.165.118-.223-.187-.122.202-.15q-.193-.03-.214-.14a.3.3 0 0 1 .032-.185l-.2-.075q-.245-.065-.2-.299l-.004-.021q-.009-.043-.085-.074a.3.3 0 0 0-.165-.013l-.066.012q-.225.042-.466.222l-.056.414q.027.018.071.01.045-.01.05-.1l.027-.095.127-.292q.29-.055.397.015.054.034.076.142l.013.065q.016.087.12.135.2.075.136.22-.388-.083-.482.024l-.019.138-.014.16a1.2 1.2 0 0 1 .229-.19q.053-.02.165.07l.254.11.025.354-.33-.14q-.023.118-.207.241-.176.168-.185.349l.22-.176.138.108.109-.378.138.108.089.096-.364.27q.079.164.174.056.018-.025.085-.038l.322-.015zm-.802-.297-.425.08-.146-.264q-.037.388-.06.28l.5.175zM10.662 34.8q.003.022.09-.017l.11-.02-.261-.265q-.076.081-.064.146l.063.078zm-.104-.63-.03-.152q.105.07.33.028.157-.03.555-.24l-.196-.052q-.167.098-.323.128l-.294.033q-.024.003-.095.107l-.082.285q.022-.005.076.03.084-.038.059-.168m2.92 15.554q.066-.011.084-.038l-.08-.165-.04.03zm-2.026-9.264q.057.057.125.044l.12-.09zm2.162 9.486.29.057q.044-.009.086-.15a1.1 1.1 0 0 0-.393.006q-.224.041-.247.158l.134.087zm-.387-1.005q-.1-.026-.116 0l-.072.103zm-3.07-14.92.23-.358q.017-.026-.057-.168l-.274.14-.06-.302q-.104.064-.09.129.008.044.088.096l.062.078q.054.035.058.056l-.027.095.013.065zm2.339 13.824q.16.105.223.07l.04-.142.185-.124q-.103-.048-.116-.113-.012-.064.037-.164.022-.116-.035-.173-.207.354-.066.596zm-.081-1.442q-.027-.13-.246-.067.107.07.227.205zm.628 3.47-.031-.039-.157.03.01.043zm-.325-.23q.201-.038.242-.068l-.005-.022-.245.046zm-.372-.469-.085.039.07.121q.044.216.272.196zm-.137.475a.54.54 0 0 0-.037.276q.008.043.164.126zm-.086-.657q-.03-.15-.185-.459l-.157.142.302.347zm-.472-.966q-.021-.107-.227-.091l.12.134.097.139zm-.45.59q.031-.018.005-.035l-.049-.125-.072.103q.014.065.058.056.027.018.058 0m-.632-1.126q.066.1.109.08a.3.3 0 0 0 .096-.096.6.6 0 0 1-.205.016m-.079-.39-.079-.163-.075-.143-.045.008.114.337zm-.744-1.048.17.036q.076.03.118.011a.4.4 0 0 0 .1-.075zm-1.274-2.07-.005-.022-.166.099.054.034zm-1.554-4.957q.247-.158.1-.31zm.78 3.42.03-.32q-.135.026-.181-.033a.5.5 0 0 1-.077-.21.6.6 0 0 0 .263.04q.067-.012.063-.146l-.183.012q-.09.017-.14.116-.191.081-.072.215zm-1.086-3.676q.045-.009.062-.034l-.083-.187-.09.017zm.613 2.823q-.117.224-.12.269t.11.136zm-1.148-4.56q-.019.026.003.134.023.108.223.07a1 1 0 0 0-.226-.204m.55 1.355.014-.048q-.013-.065.113-.245l-.031-.04-.229.133-.146-.152.134-.137a.5.5 0 0 0 .117-.112l-.143-.018q-.12-.021-.116.112.005.022-.081.06-.171.077-.166.21l-.015.16.439-.127a.3.3 0 0 0-.033.186q.013.065.134.087.018-.025.009-.07m-.168 2.162q.04-.03.264-.072l-.009-.043q-.223.041-.273.029zM6.3 39.41q-.03-.151-.013-.176-.026-.018-.067.012-.04.03-.027.095l.062.078zm-.294-2.501-.197-.053-.13.047.014.065zm.315 1.915-.128-.178-.176.28zm-.257-.356-.244-.29-.063.034.129.177.097.139zm-.078-.502.05-.098-.062-.078q-.067-.1-.156-.083-.018.025-.062.034l.092.117-.29.167.191.031a.34.34 0 0 0 .174.057.5.5 0 0 1 .063-.146m-.229 1.053q-.165.1-.148.185l.133.2zm-1.043-4.38.04-.03q.023-.003.019-.025l-.067-.1-.044.009zm1 4.86-.093-.006.016.199q.005.022.05.013zm-.64-3.873-.254.115q.094.006.11.091l.013.178q.013.064.156.083zm.357 3.387-.094-.005-.005.203.093.005zm-.538-2.792-.076.082q-.086.038-.068.124l.08.165zm-.137-1.028a.3.3 0 0 1 .046-.233l.081-.173q-.027-.017-.071-.008-.09.016-.095.107l-.05.099q-.063.147-.192.08l.14.177a.4.4 0 0 0 .073.075.6.6 0 0 0 .17.036.4.4 0 0 1-.102-.16m-.017.608a.54.54 0 0 0-.115-.225l.003.246a1.5 1.5 0 0 1-.002.337q.144-.206.114-.358m-.428-.861q.036-.051.287-.189-.143-.017-.165-.126l.032-.185q.042-.142-.065-.212-.024.116-.084.161a.5.5 0 0 1-.195.07l-.156.03q.316.075.342.205zm-.308-.032q.09-.129.086-.15-.014-.065-.232-.114zm.33.723q.1-.198.091-.242-.003-.021-.151-.06.014-.048-.043-.33l-.362.047.085.073.03.04q.009.043.036.06l.126-.18.08.164q.021.108.048.125l-.117.224zm-.135 1.057-.076-.03-.023.228q.026.018.071.01zm-.475-2.131q.224-.042.159-.367l-.248.384zm.366 1.703.278-.232a1.4 1.4 0 0 1-.106-.181q-.08-.165-.196-.166l-.262-.152.065.324.193-.193.123.38-.228.02zm.094 2.427q.054-.077.045-.12l-.031-.04q-.045.009-.071-.008a.14.14 0 0 0-.023.116zm-.364-2.04.014-.16q-.017-.086-.15-.173l.062.078-.028.207a.4.4 0 0 0-.023.116.4.4 0 0 0 .101.16zm-.18-1.356q.126-.07.108-.155-.013-.066-.09-.106-.08-.042-.124-.034-.09.017-.107.043l-.121.09zm-.362-.762.045-.121-.08-.052q-.014.048-.211.331.201-.038.246-.158m.784 4.36-.236-.135q-.037.165-.01.181.12.135.246-.046m-1.053-4.198q-.027-.017-.094-.005l.013.178.071.009zm3.14 16.075-.023.004-.023.228.07.01zM6.014 38.68q-.17-.146-.23-.158a1.2 1.2 0 0 0-.305.035q-.045.008-.152-.062l-.178-.078-.062-.078q-.014-.066.108-.155l.11.091q.099.139.238.023-.165-.24-.213-.251l-.38.07-.2-.298.085-.039q.09-.016.125.044a.3.3 0 0 0 .299.101l.12.022.153-.163.13-.16-.017-.086a.6.6 0 0 0-.066-.212 1.3 1.3 0 0 1-.088-.207.4.4 0 0 1 .078-.306.6.6 0 0 0 .117-.224l-.045.008a.22.22 0 0 0-.18.146l-.103.177-.653.212-.062-.078-.008-.155q-.022-.109-.16-.105l.082.523-.267-.174q.026.13.008.155l-.028.095-.049-.013-.065-.324-.264.072.253.334-.04.03-.228-.092q-.005.203-.252.361l-.165.099.222.182q.332-.31.533-.347a.6.6 0 0 1 .281.014l-.244-.177.183-.125.258.243a.3.3 0 0 0-.037.164q-.05.211-.296.258-.066-.1-.158-.094-.09.007-.141.105l-.023.004q-.11.021-.094.107l-.04.143q.089-.016.307.032l.607.132-.014.048.009.043q-.09.017-.126.069-.036.051-.027.094.013.066.08.109.066.044.152.005l.107-.043-.08-.164q-.021-.108.252-.25l.137.334.281.014.232.002zm.162 12.687-.035-.173-.086.039q.027.016.053.147zm-.202-.77q-.183.013-.212.04-.03.028-.008.136zm-1.279-4.514q.129.066.15.05.02-.014.043-.131zm1.23 5.309a.5.5 0 0 1-.124-.157l-.099.086.165.126zm-2.28-10.068q.067-.013.063-.035l-.053-.147-.089.017zm-.457-1.933a.8.8 0 0 0 .277-.12l-.142-.13zm-.031-.959q-.181-.212-.246.047zm2.038 10.944q.067-.236.106-.278.039-.04.204-.027a.3.3 0 0 0 .037-.164.34.34 0 0 1 .22-.288l-.268-.062-.445.667zm-.987-4.794q.022-.003.059-.056l.058-.056-.125-.043q-.045.008-.07.057-.024.05-.02.072zm-.625-4.032q-.24-.157-.313.06zm-1.037-3.887q.112-.02.09-.241l-.228.132.067.1zm1.238 5.464-.062-.078-.197.172.057.056zm-.537-1.402a.75.75 0 0 0-.02.363q.022.108.223.183zM2.098 34.55q-.013-.066-.085-.074l-.2.038.289.17zm.286 2.458a.22.22 0 0 0 .143-.094l.12-.09-.164-.014q-.09.016-.216.197.027.018.117 0m3.185 13.419q.018-.026.107-.043l.228-.02a.28.28 0 0 0 .184-.124.3.3 0 0 1-.133-.2q-.12-.247-.231-.225-.18.034-.359.291a.8.8 0 0 1-.488.227l.218.16.462-.356zm-1.162-4.739-.129-.065q-.222-.07-.335.063.214.027.437.097zm.331 3.146q.08.051.17.035a.3.3 0 0 0 .166-.098l-.148-.04q-.075-.03-.118-.011-.043.02-.066.135l-.17.302q.087.094.155.082.09-.016.108-.042.017-.026.062-.034zm-2.13-10.59q-.065-.324-.398-.486l.013.065q.026.13.186.234zM5.74 50.932q-.116-.113-.308-.032l.216-.197-.294-.192-.018.026q.027.018.04.082l.07.121q-.28-.126-.419-.123a1 1 0 0 0-.25.025q.067.1.102.104.036.005.161-.064l.08.165.335.049q.096.25.374.131zM3.107 40.145q-.04-.082-.122-.09a.24.24 0 0 0-.163.054l.511-.455-.41-.08-.08.06.083.186-.43.283.15.286q.01-.18.037-.22.027-.039.139-.06l.275.218zm1.34 8.967-.233-.002q.093.118.173.17a.5.5 0 0 1 .06-.168m.078 1.891a.64.64 0 0 1 .106-.513l-.147-.152zM1.822 37.561l-.014.16q.021.108.218.048zm-.054-2.345-.129-.066.229-.132a.4.4 0 0 0-.215-.027.5.5 0 0 0-.174.055l-.188.103.445.14zm.902 5.64-.062-.079q-.053-.035-.076-.03-.045.008-.13.159zm-1.346-5.198q-.009-.043-.214-.14l.173.282zm3.98 15.76.243-.18-.28-.24q-.023.005-.059.057l.151.173-.223.042-.089-.208-.197.172.022.108-.059.056-.196-.053-.148.185-.022-.108q-.052-.26-.19-.256.046.239.03.264a1 1 0 0 0-.015.159q.022.109.195.166a.65.65 0 0 1 .296-.146q.134-.026.438-.015.37-.002.478-.045zm-.77-2.682-.089-.207q-.028.207-.064.258-.045.01-.071-.009a1.6 1.6 0 0 0-.123-.38l.201-.038q.09-.24.136-.306.045-.064.179-.09l.205-.016-.05.324.564-.308-.078.306-.558.105.114.225a.16.16 0 0 1 .103-.064q.09-.016.192.031.107.07.17.036l-.075-.143.29-.055-.215-1.417a.55.55 0 0 1-.21.106q-.18.035-.455-.183l-.065.483q-.17-.035-.188-.01-.019.026-.13.047-.135.026-.182-.212.063-.034.398-.098l-.013-.064-.378-.153-.007.315q-.133-.087-.158-.15-.024-.062.048-.166l.136-.25q.026.018.044.104l.112-.02q.071.008.067-.013.022-.117.112-.133.134-.025.214.026.027.018.184-.012a.64.64 0 0 0 .295-.145l-.827.043-.157.254.053-.66-.37-.11.216.498-.56.217q.009.044.116.113.089.096.012.177-.112.021-.138.003l-.045.009q-.134.026-.069.35l.38-.184.089.207q.018.087-.055.19a.9.9 0 0 0-.26.15q-.068.069-.045.177.017.087.097.25l.232-.11.09.095.12-.09q.135-.026.196.165l-.055.19q-.151.051-.117.224.03.15.124.212.094.061.37.053-.026-.016-.053-.147M3.165 45.63q.022-.003.058-.055l.077-.082-.085-.074q-.026-.017-.071-.01a.4.4 0 0 0-.09.13zm.125-7.918q.124.044.192.031.111-.021.107-.099-.003-.077-.147-.095-.12-.023-.07-.122l.246-.046-.01-.043-.298-.1q.193-.195.163-.346t-.217-.273l-.371.003-.09.129q.08.052.147.04.067-.013.085-.04.018-.025.085-.037l.053.034-.064.26a.34.34 0 0 1-.143.206q-.104.065-.43.17l-.367.137-.046-.687.229-.133-.209-.23q.202-.037.506-.14.09-.016.197-.172.108-.154.206-.128l-.048-.238a1 1 0 0 1-.201.207q-.073.046-.175-.001.163-.233.136-.362-.022-.108-.271-.196l.015.423q-.04.142.12.135l-.207.353-.253-.222a1 1 0 0 0-.184.124l-.07-.346q.027.018.072.01l.106.07q-.075-.144-.126-.168a.5.5 0 0 0-.19-.02q-.03-.039-.083-.298-.108.154-.099.198.009.043.183.1l-.22.176q.255-.003.28.126.013.066-.005.091l-.027.095.334.161-.145.32-.398-.599-.024.229-.45-.274q.138.333.203.545l.21-.107-.068.35-.147-.04-.041.03.266.286.006-.203.446.028q-.01.182.004.246.026.13.186.235.043.104.21.117.191.032.226.092l.153-.163q.018-.025.005-.09-.054-.036-.022-.109.21.118.254.221.025.019.012.178l-.014.16q.03.15.217.273.055-.415.07-.462m1.305 14.916q-.45.063-.756-.127a.84.84 0 0 1-.383-.578l-.313-1.556-.13-.761-.49-2.442-.309-1.534-.466-2.088-.226-1.236-.46-2.179-.109-.653q0-.112-.103-.63l-.467-2.089-.211-1.283-.166-.821a.87.87 0 0 1 .165-.625.83.83 0 0 1 .542-.36q.495-.07 3.29-.596.291-.055.647.102.356.158.525.418l.5.87.64 1.113 1.355 2.235.862 1.52q.288.507.593.988l.734 1.23q.345.563.801 1.442.287.507.7 1.057l-.09.017a1.2 1.2 0 0 0-.003-.246q-.204-1.016-.266-1.206-.104-.52-.144-.601l-.21-.925-.252-1.03-.105-.518-.392-1.72-.109-.429-.214-.834-.056-.393q.005-.091-.214-.947-.044-.104-.183-.796-.108-.54-.153-.644l-.161-.687a.85.85 0 0 1 .15-.701.9.9 0 0 1 .633-.366l1.9-.357q.447-.084.74.22.16.104.212.364l.234 1.279q.105.518.149.623.048.125.117.47 0 .114.048.35l.17.843q.046.127.117.472 0 .113.052.371l.174.865.113.562.095.475.039.307.091.341.162.688.108.653q-.005.09.1.609l.257 1.05.33 1.643q.295 1.47.326 1.733.291 1.449.365 1.703l.339 1.686.14.58q.078.388-.046.636-.125.248-.518.366-.153.052-.979.207l-1.726.302q-.492.093-.772.022-.281-.071-.414-.214a4.6 4.6 0 0 1-.404-.564l-.721-1.165-.31-.502-1.337-2.149L7.34 44.24l-1.137-1.85-1.492-2.343a2 2 0 0 1-.133-.2l.09-.016.126.626.095.476.043.328.1.385q.274 1.362.345 1.595l.858 3.808.91 4.293q.135.67-.545.865a.7.7 0 0 1-.22.064.6.6 0 0 1-.205.016q-.315.059-.42.101zm22.601-5.295.084-.062-.093-.098-.136-.067q.018.09 0 .115l-.007.21zm-2.38-8.476q-.004-.023-.13-.045l.032.04q.009.044.037.062t.037.063a.15.15 0 0 0 .025-.12m.236.788a.4.4 0 0 0 .17-.008.3.3 0 0 0 .193-.128l-.173-.245a3 3 0 0 0-.227.203l-.203.2a.7.7 0 0 1 .24-.022m-.715-.03a.5.5 0 0 1-.013-.183l.015-.164q-.038.053-.316.127zm1.398 7.27q-.174.103-.152.213l-.01.187q.128-.208.162-.4m-1.287-7.799-.103-.027.09-.155.048-.124-.104.088-.155.075q-.119.022-.244-.117-.057-.036-.137-.01t-.09.098q.229.165.512.23.277.041.282-.053-.07.013-.099-.005m.941 7.425-.013-.183-.023.005-.058.195zm.168 1.054-.004-.022-.174-.13q.005.022-.033.075.127.024.169.108zm-1.859-7.255-.028-.019-.052-.013a.15.15 0 0 0-.024.12l.108.05zm-1.742-8.94-.083-.054-.047.009q.013.067.041.084t.042.085a.8.8 0 0 0-.18.079q.006.022.029.018.197.01.362-.02zm-.393-.136q.013-.048-.122-.116l-.054.333q.161-.168.175-.217m1.63 8.522q.07-.014.08-.084l-.088-.192-.208.292q.041.085.112.072zm-2.054-8.444a.6.6 0 0 1 .034-.19q-.024.003-.08-.032l-.058.195zm1.58 8.992a.4.4 0 0 0 .095-.133q-.084-.053-.122 0-.07.013-.056.08zm-.517-.736q.047-.008.141-.141-.234-.073-.245.114zm-1.59-7.49-.184.057.01.045.192-.013zm-.244-.116q.043-.03.325-.083l-.083-.17-.103-.142zm-.342-1.069q.038-.052.02-.142-.057-.036-.08-.032a.7.7 0 0 0-.01.187zm1.756 10.138a.5.5 0 0 1 .214-.085l-.047.008-.145.004q-.119.022-.172.355.076-.222.15-.282m-.245-.301a.6.6 0 0 0-.023-.227l-.07.013a.3.3 0 0 0-.049.24q.023.11.164.2a.6.6 0 0 1-.022-.226m1.445 7.146a.15.15 0 0 0-.07-.102l-.098-.12q.01.044-.038.052l.066.08.033.04q.009.046.037.063zm-.124.346q.028.017.024-.004.07-.013.08-.2l-.235.16q.056.036.06.058zm-3.893-17.619q-.02.027.008.16.014.067.075.067.06 0 .179-.02zm1.175.962.34-.132.339-.131q-.042-.084-.207-.055l-.141.026q-.212.04-.268-.112a1.3 1.3 0 0 0-.219.479q-.056-.036-.272-.02-.07-.102-.094-.098l-.095.133.236-.043a1 1 0 0 0-.007.44q-.183-.29-.601-.305.032.155.229.281a.21.21 0 0 0 .145.112l.113.071.052-.102q.066-.15.18-.194a.24.24 0 0 1 .225.027l-.18.195-.137.164.4.042zm.659 8.192q.094-.133-.05-.245-.114.16-.043.146.009.045.037.063zm-.11-.534-.248-.14q-.02.028-.001.116.01.045.089.076l.103.028zm1.31 7.91q.113.072.206.055.118-.022.166-.146zm-3.285-15.49a.3.3 0 0 0 .23.05q.189-.036.59-.34l-.422-.153q.035.178-.01.244-.049.066-.209.12zm3.527 16.785q.052.014.07-.013l.071-.013-.131-.045-.104-.027q.005.023-.033.075.046-.008.075.01zM18.825 31.23l-.117-.095a.6.6 0 0 0-.169-.107q.027.134.017.32zm.637 3.692q.02-.027.066-.035-.028-.018-.05-.13l.02-.141.004-.094q-.169.009-.197-.125-.037-.178-.064-.196a.33.33 0 0 0-.068.266l.098.236.018.09a.6.6 0 0 1 .022.226zM19 33.506q-.018-.088-.13-.16a.4.4 0 0 1 .008.16.6.6 0 0 0 .022.227q.105-.204.1-.227m1.072 4.26q-.03-.018-.099-.005a.19.19 0 0 1-.216-.099l-.121-.116.064.311zm-.333-1.855q-.42.1-.36.389.005.023.045.038.039.015.063.011zm.283 2.326-.005-.022a.9.9 0 0 0-.268.003l-.018.026-.015.05zm1.88 10.092-.063-.312a.8.8 0 0 0 .02-.258q-.015-.066-.239-.21a.5.5 0 0 0-.03.214l.187.312.055.267zM19.91 36.387l-.22-.006q-.096.018-.086.178-.048.01-.108-.05-.109-.048-.141-.032-.033.019-.058.138l.226.028.226.028zm-.217.964a.9.9 0 0 0 .25-.092q.207-.062-.018-.205-.151.213-.222.225l-.221-.005q-.02.027-.02.258.188-.15.23-.181m-.638-1.2a.27.27 0 0 0-.053.218q.014.066.155.157zm2.48 12.292q.118-.022.144-.073t-.03-.203a.4.4 0 0 0-.094.133l-.138.164zm-2.143-10.298q-.108.066-.095.133.01.044.15.134.046.107.122.116.075.01.23-.065zm-1.368-5.822q.14-.025.16-.052.018-.027.09-.04-.174-.245-.264.025-.024.005.005.023zm1.538 6.53q-.05-.13-.079-.148t-.17.009zm-.87-5.89.236-.044-.136-.067-.155-.041-.185.288q-.048.01-.108-.05-.005-.02-.06-.058a.4.4 0 0 0-.109-.05l-.085.063.01.044q.017.09.182.175.051.014.22.12l-.057.196q.027.018.075.01l.024-.005zm2.115 12.888-.098-.12-.006.093q.023.112.178.152zm-.935-3.592.142-.026q.163-.03.123-.23l-.128.092-.165.147zm-1.115-6.607.024-.004a2.5 2.5 0 0 0-.365-.349l.023.112a.4.4 0 0 0 .074.182q.046.05.202.09zm-1.078-4.05q.094-.017.133-.071.037-.053 0-.116-.112-.071-.136-.067l-.119.253zm1 4.619-.019-.09q-.094.018-.113.044-.018.028-.113.044l.01.045zm-.108.781q.117-.021.137-.048.018-.026.136-.048l-.013-.066-.283.051zm-.634-3.554a.32.32 0 0 1 .044-.262l-.207-.055q.055.267.084.285l.023-.005zm-.026-.365a.7.7 0 0 1 .025-.236q.038-.168-.074-.24l-.153.444zm-.564-1.79.086-.177-.157.19-.099.11.033.04.028.018zm1.451 7.885q-.047.008.007.09.053.084.058.106.056.036.18-.08-.198-.125-.245-.116m.82 3.15-.014-.066-.212.04q.029.017.042.084zm.877 5.336q-.093.017-.085.061.117-.021.146-.003.028.017.146-.004-.112-.072-.207-.054m-1.502-9.561a.27.27 0 0 0 .053-.218.23.23 0 0 0-.077-.136 2 2 0 0 0-.171-.118l-.197-.126q.05.13.08.147.026.018.117-.021a.6.6 0 0 1-.016.28l-.108-.05-.131-.045-.208.177.056.035q.009.045.033.04l.296.016zm-.728-1.99a.8.8 0 0 1 .288-.146l-.667-.155q.06.06.169.108zm.99-.414a1 1 0 0 0 .297.015q.212-.039.152-.328-.032-.156-.313-.22l-.085-.053q-.037-.178-.154-.157l-.185.173a1.3 1.3 0 0 0-.309-.313l.314-.496a1 1 0 0 0-.325-.033q-.141.026-.236.274l.22.121-.043.031q-.047.009-.065.036-.02.026-.137.048.032.156.06.174l-.353.064.052-.102q.02-.025.01-.07l-.093-.215q-.032-.155.128-.208l.11-.182.07-.128.11-.066.22.005q.108.05.202.033-.07-.218-.389-.23-.193.014-.29-.223l-.084-.17-.386.141a.8.8 0 0 0-.098-.236l-.26.163q.107.281.418.247l.197.01a.45.45 0 0 1-.02.257q.189-.035.438-.011l-.057.08-.274.096q-.211.04-.38-.184-.104.088-.062.289.021.227-.012.302.342.237.398.504.036.178-.097.365l.437.22-.088-.308q-.055-.267.176-.332l.406.433a.8.8 0 0 0 .223-.225q.027.134.056.151.032.04.055.151-.118.02-.136.049-.02.026-.114.043l.182.29zm-.152 5.432-.014-.067-.189.035.014.066zm-1.652-8.264.189-.034.168-.608-.336.384q-.096.134-.02.258-.048.01-.076-.01l-.183-.058q.084.17.093.214zm6.691 16.135q-.121 0-.687.104l-2.283.42-.636.116a.75.75 0 0 1-.538-.178.87.87 0 0 1-.286-.502q-.037-.063-.106-.396l-.141-.805a18 18 0 0 1-.28-1.126l-.12-.694q.007-.093-.104-.628-.192-.934-.248-1.086l-.243-1.063q-.11-.534-.105-.628l-.113-.672q-.194-.934-.248-1.085l-.257-1.131-.114-.672q0-.116-.11-.65-.191-.934-.247-1.086l-.248-1.086-.118-.693q0-.116-.114-.672-.187-.912-.244-1.064l-.256-1.13a33 33 0 0 1-.287-1.634q-.042-.2.115-.39a.95.95 0 0 1 .43-.287q.41-.144.81-.218l.993-.16 1.347-.224q.565-.103.678-.147a23 23 0 0 1 1.869-.298l1.686-.355.843-.179q.47-.086.772-.05a.64.64 0 0 1 .434.094.63.63 0 0 1 .24.337q.158.525.217.815.078.378.13.507.108.535.121.832a.8.8 0 0 1-.139.51q-.189.267-.6.295l-.56.127q-.066.034-.49.112l-.753.139-1.13.208-.73.134-1.13.207-1.013.186 1.118 5.314 1.719-.316 2.256-.437q.564-.105.882-.047.317.057.386.391.073.24.367 1.664.114.556.123.717.015.435-.526.535-.113.044-.772.165l-1.535.259-.424.078-1.46.268q-.094.017-.32.105l.37 1.802q.33 1.602.394 2.03l.47-.087q2.035-.328 3.424-.583l1.954-.359a.8.8 0 0 1 .658.11.8.8 0 0 1 .378.531l.352 1.713q.106.397-.093.676-.2.279-.6.352l-1.53.281q-1.154.212-2.84.568zm18.745-9.647-.15-.04-.17-.014.24.361zm-.028 1.717q-.1.086-.105.121-.006.035.054.091.027.018.036.06.004.023.073.01zM42.2 37.05q-.005-.021.018-.026l.023-.004a1.4 1.4 0 0 0-.24-.248l.083-.286q-.01-.043-.136-.087-.088.264-.095.467.11.071.21.097zm.778 4.609-.183.034.01.043q.026.018.187-.012zm-1.248-4.702q-.137-.087-.16-.083t-.05.043a.1.1 0 0 0-.019.082q.082.053.128.044t.1-.086m-.58-1.672q.127.044.196.031.114-.02.111-.268a.34.34 0 0 1-.142.116zm1.38 6.389.033-.073q-.069.012-.141-.11-.02.027-.01.07l-.014.047q.009.044.091.096zm.021-1.287q.02-.026.01-.07l.014-.048-.433-.145.067.213a.16.16 0 0 0-.142.004q-.064.033-.055.077l.004.022q.004.022.142.11l.041-.144q-.009-.043.01-.07.192-.102.187.102l.054.035.087.073zm-.231.605q.092-.242-.044-.33a.45.45 0 0 1-.138.139q.095.004.109.07l-.06.055-.074.104q.064.079.173.149a.28.28 0 0 1 .034-.186m-.947-4.848-.252.047q.187.1.232.204-.017-.199.02-.251m-1.728-7.159.021.222q.026.13.219.14a1 1 0 0 1-.24-.362M42.18 41.76a.44.44 0 0 1-.133-.246l-.069.013q.045.217.043.442l.206.075q.206.075.273.062a.8.8 0 0 0 .175-.077q-.393-.175-.495-.269m-1.29-5.775.018-.026-.009-.044q-.114.022-.142.004.004.023-.032.074zm-1.558-7.37-.077-.144a1 1 0 0 1-.077-.144l-.038.165a.3.3 0 0 1-.06.169zm-.07.823.042-.03.019-.026q-.022-.108-.096-.118l-.045.009zm2.497 11.95-.008-.044-.083.06q-.091.017-.07.126zm.281 1.254-.004-.022-.105-.048-.05-.014q-.045.009-.073-.008l-.005.09q.045-.007.223.05zm-1.52-6.724q.018-.027-.022-.221l-.069.012q.027.13-.01.182.028.018.073.01zm-1.347-5.878q.117.114.26-.003a1 1 0 0 1-.26.003m2.442 10.99.03-.545-.173-.036q-.014-.064-.04-.082-.028-.018-.041-.083l-.184.26.288-.099-.012.52q-.133.047-.115.134.014.066.04.083.029.017.05.125a.7.7 0 0 0 .157-.276m-.29.437-.02.14q.028.13.287.239zm-.943-5.411q-.014-.065-.118-.114l-.306-.101q-.018.026.004.135.017.087.177.17t.219.14a.5.5 0 0 0 .024-.23m.709 4.847q.09-.017.05-.213l-.197.194zm-1.327-4.733-.095-.118q-.04-.082-.201-.053a.9.9 0 0 0 .236.227zm1.36 7.79q-.027-.243.124-.316l-.415-.059q.19.236.213.344.022.109-.062.394a.4.4 0 0 0 .14-.363m-1.778-8.208q-.129.068-.138.137-.009.07.086.187zm-.247.766q.033-.074.01-.07l.041-.03-.036.052q-.02.026.008.156-.055-.035-.023-.108m1.374 6.818.06-.169-.32.06.176.395zm-.29.55q.085.075.154.061t.06-.169zm-1.525-8.48q-.023-.11-.26-.223l.268.379q.019-.026-.008-.157m-1.771-6.904q.24.136.32-.059l-.342-.05zm3.347 16.68a.35.35 0 0 1 .234-.133.1.1 0 0 0-.036-.061l-.032-.04q-.105.066-.18.169zm.63-.634-.395-.423-.472.132q.155.062.347.071.347.072.483.272zm-.872-.087-.07.013.01.156.072.01zm-.412-.037q.262-.115.331-.297.07-.183.045-.65l-.16.029q.098.478.092.569-.026-.018-.164.007a.4.4 0 0 0-.192-.01q-.07.015-.082.06-.015.049.095.119.077.03.04.082zm.263.357-.25-.18q-.078-.03-.151.074l-.014.048q.009.044-.01.069.102-.085.093-.13zm-3.965-16.566.023-.004q-.027-.018-.04-.082l-.06-.057q-.022.004-.018.026l-.041.03.059.056q.009.045.036.061zm3.39 17.292q.027-.039.096-.052l.188-.012.283-.007-.009-.043-.233-.093-.287-.127q-.146-.018-.163-.105l-.025.342q-.038.053-.015.16.005.023.043.038.039.015.085.007a.24.24 0 0 1 .037-.108m-.239-.643.13-.182q.114-.134.06-.281l-.385.206zm-.21.827-.045-.217-.082.06q.027.017.058.17zm-.272-.4q.138-.138.152-.186l-.005-.022-.031-.039a.8.8 0 0 0-.161.142zm-.24-.069q-.015-.02-.139-.042l-.062-.304-.162.368.224-.064a.7.7 0 0 1 .086.187q.07-.125.053-.145m-.387.252.145.244q.04.081.11.07l.183-.147zm-.653-.172.1.026.1.026.083-.06.083-.06zm-.172-.262a.5.5 0 0 1 .184-.146q.192-.104.247-.181a.34.34 0 0 0 .052-.212l-.143.116q-.216.22-.375.137zm-.434-.145a.7.7 0 0 0 .01-.182l-.091.13zm-.227.628q-.027-.018-.165.007l.005.022q.027.018.073.01l.059.056zm-.112-1.241-.195-.257.083-.06.078-.082-.15-.04-.174-.036-.042.143-.088.152q.082.053.095.117.014.065-.11.156zm-.417.978-.1-.14.036.174q.026.13.15.153zm-.625-1.777-.05-.013q-.028-.017-.073-.01a.65.65 0 0 1-.007.318q.054.035.078.03zm.35.318.206-.038-.013-.064-.142.003q-.16.03-.179.055a.4.4 0 0 0-.194.329l-.052.325q.16.083.301.192.035-.637.073-.802m-3.058-13.76q-.013-.065-.127-.044-.028-.017-.12 0l.005.021-.014.048a.44.44 0 0 1 .22.027q.045-.009.036-.052m3.023 15.096-.095-.118-.133-.065q.028.017.12 0 .114-.021.178-.168l-.298.168-.092.242zm-3.047-13.65q-.039-.015-.153.006.023-.005.269.153-.078-.143-.116-.159m1.183 6.29q-.051.1-.047.122l-.032.073q.054.035.077.032a1.3 1.3 0 0 1 .002-.226m1.45 6.963q-.085-.3-.14-.334l-.068.012q-.019.027 0 .113a.21.21 0 0 0 .1.14zm-.767-3.395q.075-.102-.104-.16-.01.182.012.29zm.543 1.837.046-.12q.07-.126.043-.2t-.119-.057q-.237 0-.443.037.223.048.28.094.056.047.152.276zm-2.875-12.06.083-.172q-.082-.053-.128-.044-.073.103-.064.147zm-.133-.763a.4.4 0 0 0 .12-.112l-.01-.044q-.068.014-.142.117l-.082.06-.015.047.024-.004.008.044zm.303 2.174q-.005-.022.097-.108.078-.083.01-.182-.207.15-.203.285zm1.966 9.592q-.102.086-.092.13.008.044.136.087zm-2.253-11.341q-.028-.017-.045-.105l-.06-.056-.11.043a.6.6 0 0 0 .105.16zm2.464 12.023q-.225.064-.193.216.022.108.05.125.026.018.044.105zm-.591-2.189a2 2 0 0 0-.246-.044q.062.19.26.11.114-.02.141-.004a.4.4 0 0 1-.155-.062m-1.958-9.436-.225.177.023.108.365.045zm-.032.885.225-.177q-.082-.052-.151-.04-.069.014-.17.212.045-.009.05.013zm2.803 12.635.083-.06-.105-.048-.105-.048q.033-.186.127-.249.095-.061.387-.139l-.359-.361.199-.42-.476.223.285.465q-.198.195-.29.211-.022.005-.172-.148l-.015.16q.014.066.354.453.069-.012.087-.039m-.589-.904q.019-.026.064-.035l.042-.03q.174-.076.084-.285l-.083.173zm-2.755-12.983q.196-.081.215-.107-.055-.035-.073-.122a.7.7 0 0 0-.183.147zm2.455 11.056a1.4 1.4 0 0 0-.26.003l.123.079q.068.045.104.104zm.1 1.874q-.018-.087-.128-.157.003.247-.006.316.147-.094.133-.16m-2.648-12.687a.6.6 0 0 0-.182-.192l-.037.052.173.148zm2.262 11.271q.037-.05.02-.139-.014-.065-.096-.117t-.09-.096l-.083.06q.036.061.118.114zm-2.402-10.795a.2.2 0 0 0 .037-.165.3.3 0 0 0-.104-.16l-.084.398.027.017q.027.018.036.061zm1.028 5.598q-.022-.108-.255-.088l.236.227zm6.113 9.436q-1.419.261-2.953-.39a5.6 5.6 0 0 1-2.482-2.031q-.643-.94-.839-1.895l-.044-.33q.01-.069-.053-.373l-.183-.777-.107-.52a1.2 1.2 0 0 1-.039-.309 1.2 1.2 0 0 0-.04-.308q-.115-.563-.338-1.424l-.205-.998a.9.9 0 0 1-.058-.282l-.04-.195-.227-1.107-.133-.651q-.24-1.398-.444-2.396a1.8 1.8 0 0 1 .004-.676l.05-.573q-.004-.358.131-.745.135-.385.454-1.029.774-1.201 1.768-1.801.993-.6 2.503-.879l1.313-.197q1.436-.174 2.84.422 1.405.597 2.125 1.793.32.526.445.841.124.315.213.75.039.42-.4.591l-.756.14-1.739.32q-.526.097-.742-.38l-.145-.357-.158-.309a1.44 1.44 0 0 0-.637-.502q-.374-.145-.941-.13a3.6 3.6 0 0 0-.677.057q-.814.082-1.471.7-.658.615-.61 1.306l.056.508q.058.281.048.351l.075.594.338 1.65q.218 1.063.584 2.617l.716 3.494.07.347a1.4 1.4 0 0 0 .118.34q.162.442.526.77.364.327.847.485.657.195 1.458.046.48-.088.568-.127.705-.265 1.12-.961t.25-1.499l-.058-.17-.021-.22-.09-.435-.146-.716q-.29-1.41-.42-1.589l-.76.118q-.8.147-.934.194-.38.116-.596-.014-.217-.129-.297-.52-.066-.21-.32-1.449l-.072-.347q-.105-.52.121-.743.228-.222.685-.307l.485-.067.577-.083q.11-.044.75-.161l.915-.17.938-.172q.252-.047.316-.08l.202-.06a.78.78 0 0 1 .538.08q.242.136.355.34l.202.638.12.474.245 1.306q.237.925.522 2.314.245 1.193.252 1.35.058.282.1.713.04.432-.012.757-.03.434-.173.775l-.062.282q-.06.282-.12.337-.15.434-.504 1.017-.66 1.18-2.128 2.014a2 2 0 0 1-.38.115q-.619.226-1.213.336zm19.209-5.975-.102-.165-.093-.12-.062.035.07.124.102.166zm-.247-.436q.04-.03.07-.06.028-.029-.083-.007-.135.026-.173.068t-.016.153zm.06.542q-.3-.22-.338-.304l-.095.11q.201.078.423.265zm-.998-3.084-.058.058q-.019.026-.108.044l.423.264zm.702 4.063q.067-.012.085-.039a.15.15 0 0 1-.067-.102.8.8 0 0 0-.201.154q.027.018.035.062zm-.655-2.757.09-.017-.161-.107-.179.034q.137.112.183.103.048.015.067-.013m.236.854q-.026-.133-.053-.151-.025-.018-.04-.085.027.134-.085.156l-.09.017-.04.146zm.276 1.055q-.026-.135-.08-.17-.08-.053-.561-.145.008.045-.105.297l.282-.1a.24.24 0 0 1 .167.025q.078.042.159.096l.16.108zm-.913-.516-.178-.08q-.036.053-.058.056l.16.108zm.154 1.262-.084-.076-.081.062.035.062zm-.127-2.19-.437-.1q-.09.017-.05.217zM55.9 40.98a.7.7 0 0 1-.102-.28q-.18.034-.14.234.106.187.33.145.026.017.116 0-.142-.018-.204-.099m-.818-3.233-.076-.147-.014.164q.009.045.084.076l.085.076zm.125.76q-.022-.11-.196-.17a.27.27 0 0 1-.213-.143l-.01.186-.023.12q.215.028.437.1l.112-.021q.21.005.215-.088-.01-.044-.116-.116l-.21.225zm-.657-.634q.11.21.2.192a.4.4 0 0 0 .165-.101q-.117 0-.365-.091m-2.09-9.378a.34.34 0 0 0 .042-.262q-.022.005-.026-.018l-.045.009zm.225.556q.023-.004.028-.097l.018-.143-.273.146q.16.107.227.094m-.221-.303q-.112.022-.139.003l-.067.014-.214-.028q-.063.035-.032.075.03.04.076.031.072.01.17-.078a1 1 0 0 1-.014.164.45.45 0 0 0 .22-.181m-.592-1.247q-.093-.12-.205-.098l.098.142q.091.236.298.104-.093-.005-.191-.148m.672 3.792q.009-.07.112-.137-.147-.156-.168-.267a.7.7 0 0 1 .024-.293q.045-.182.113-.31l-.12.092q-.086.04-.15.306-.05.102.021.226l.102.165q.018.09-.104.182-.045.01-.009.071.026.018.044.107a.6.6 0 0 0 .135-.142m-1.51-6.421q-.099-.027-.104.066.027.018.33.028zm.977 3.456q-.156-.316-.312-.286l-.17.08zm-.204-1.276a2 2 0 0 1-.105-.302q.066-.013.143-.097l-.082-.422q-.131.279-.221.411l-.17-.036-.147-.041a.2.2 0 0 0-.086.155l.402.038-.072.221zm.383 4.448-.004-.022-.054-.036-.058.057-.054.08.027.018.008.045zm-.968-4.473-.004-.022q-.026-.134-.053-.151-.022.004-.058.057l.058.058q.008.045.035.062zm-.425-1.348.04-.146q-.067.012-.075-.032a.7.7 0 0 0-.01.187zm.936 4.433a6 6 0 0 0 .38-.19l-.213-.257q.009.044-.036.052l.035.178a.6.6 0 0 0-.165.101q-.027-.017-.058-.173l-.044.008q-.157.147-.046.24a.15.15 0 0 0 .147.041M50.92 27.5a.6.6 0 0 0 .037-.283q-.03-.156-.218-.281zm-.144-.733q.461-.251.361-.646a.3.3 0 0 1 .299.103q.066.103.097.085.032-.017.1-.146a.56.56 0 0 1-.182-.219 1.6 1.6 0 0 0-.521-.29l.22.533-.508-.11-.042.147q-.05.102-.036.169.013.066.146.156a.37.37 0 0 0-.023.235q.022.111.07.125.05.014.202-.039zm.461 2.356-.045.009q-.179.035-.1.204.005.023.05.013l.058.058zm-.51-4.146q.029-.098.128-.301l-.143-.02q-.135.027-.111-.093l.027-.098q-.18.267-.243.301-.147.075-.197.061l.04.085.407-.056zm.363 3.16a.8.8 0 0 0-.245-.068l-.054.08.312.054zm-.177.634.045-.009q-.027-.017-.036-.062l-.049-.014q-.005-.021-.026-.018l-.019.027q.014.066.067.102zm.368-1.087q-.16-.107-.272-.085-.019.027-.108.044-.135.025-.227-.095l-.125-.045-.125-.045.158-.261-.031-.04q-.022.004-.027-.018l-.255.118.089.098.066.103q.11.21.205.214.15.179.262.157.201-.039.39-.145m-.847-1.128q-.018-.088-.138-.111l.043.222-.231-.117.172.405q.153-.283.154-.399m-.127-.529q-.027-.016-.048-.129l-.085-.076q-.135-.09-.206.017l.29.059-.054.08-.054.08zm-.19.337.113-.137-.268-.064-.014.164q-.045.124.075.147zm-.307.798q.11-.023.103-.066l.175-.288q-.183.012-.423-.265l-.014.28q.186.126.07.24zm-.257-1.312q-.067-.102-.178-.081-.09.018-.108.044-.125.071-.152.052.102.165.191.148l.148-.075zm-.19 1.282q.018-.026.063-.035l.04-.03.04-.032a.15.15 0 0 0-.066-.102.44.44 0 0 1-.135.141l.031.04zm.101-.55-.134.026q-.134.025-.108.16zm.84-1.039.015-.049q-.045.009-.233 0 .028-.214.067-.256.038-.042.239-.08l.06.31.368-.14q-.08-.169-.182-.218-.12-.138-.246.047l-.223-.072q-.237-.024-.346-.106a.4.4 0 0 1-.143-.26l-.453.294-.164-.245a.55.55 0 0 1-.064.266.55.55 0 0 0-.064.267l.29-.057-.135.372q.3-.126.324-.477l.414.22-.037.168.26.019.236.024zm-1.332 1.134-.047-.244q-.014-.066-.085-.076.085-.039.076-.084-.003-.022-.098-.027l-.053-.036-.023.004-.022.12q.013.066.04.085l.061.08q.031.04.129.183zm.083.423a1 1 0 0 0-.09-.225q-.03-.03-.168-.026zm-.2-1.023-.004-.022-.076-.032q-.027-.016-.116 0l-.01.07q.09-.015.117.001l.075.032zm-.102 1.496a.8.8 0 0 0-.093-.235l-.066.013a.8.8 0 0 1 .092.235zm-.44-1.183q.133.09.178.08l.157-.145zm.272-.745q-.182-.219-.334-.282l-.069.36q.138.111.183.103.103-.067.22-.181m-.385-.664q-.22.066-.206.132.013.068.169.152zm.315 1.97-.021-.112-.256.119.014.066zm.085.906q-.094-.12-.147-.099-.054.023-.1.146zm-.026.582-.125.07-.058.057q.047.245.181.219a3 3 0 0 1 .002-.346m-.525-1.145q.021-.004.058-.057l.032-.075-.147-.041-.04.03-.014.05zm.304 1.672q-.162.123.039.2zm-.516-2.992q-.027-.018-.035-.062l-.031-.04-.111-.094q-.019.142.001.184.019.043.113.047zm4.85 9.975-2.046-5.718-.436-1.046-.128-.299-.127-.414a7 7 0 0 0-.212-.49l-.062-.08-.085-.075-.156.03q-.018.972.04 2.345l.085 1.852q.132 2.812.132 4.474zm-4.51-6.58a.34.34 0 0 0-.042.262l.075.147.084.191zm.551 1.162q-.21-.005-.243-.057-.033-.05.003-.22.09-.015.117.001.026.018.138-.003-.026-.018-.044-.107-.08-.17-.205-.1-.017.028-.005.094.017.09 0 .116a1 1 0 0 1-.3.127q.06.08.337.419zm-.066 1.559-.116-.001q-.09.018-.068.129l.134.09zm-.748-3.824-.225.274.076.032.084.076zm-.079 1.377q.112-.022.13-.049.023-.003.014-.048-.054-.036-.094-.005-.018.027-.063.035zm.677 3.814q.143-.212.14-.235-.014-.067-.219-.165zm-.22-.765.015-.28q-.074-.378.101-.55.081.054.348.117-.053-.15-.276-.223-.24-.046-.262-.157.32-.016.5-.05l-.396-.247q.156-.03.197-.061.04-.03.22-.066l-.049-.244q-.286.194-.364.393-.09.018-.277.123-.004.578-.034.422l.125.045q-.02.373-.138.834zm-.161-1.538q.143-.211.11-.39a.6.6 0 0 0-.182-.334.37.37 0 0 0-.344-.095l-.192.083q.12.023.244.183.116.117.223.188.067-.013.106.188zm-.771-1.096q.223-.044.064-.266l-.028.097a.33.33 0 0 0-.059.173zm.717 1.891a2.4 2.4 0 0 1-.406-.06l.208.352zm.283 2.99q.112-.02.31-.313a2.4 2.4 0 0 0-.488.233q.135.09.178.08m-.688-3.166q-.01-.044.05-.217.072-.105-.034-.293-.127.302-.11.506zm.197-.891q-.214-.028-.268-.064-.052-.035-.084-.191l-.205.017q.12.138.128.182.084.191.153.248.069.055.18.034zm-.64-.66.028-.099q-.019-.087-.187-.125.03.156.057.174a.5.5 0 0 1 .057.174zm.435 2.107a.6.6 0 0 0-.093-.179q-.043-.048-.187-.067.027.018.036.062.013.067.04.085a.46.46 0 0 0 .074.205q.044.049.183.045-.026-.018-.053-.151m.142.964q.064-.035.287-.078-.25-.206-.383-.18-.157.03-.19.337.225-.043.286-.079m-.631-2.046-.102-.165-.073.222q.009.045.25.09zm.172 1.12-.256.234q-.026-.017.304.01zm1.528 9.002-.08-.17-.04.032-.022.004.03.156zm-1.655-9.531-.12-.139-.25-.09.079.1q.045.06.08.055.033-.007.091-.065l.031.156q.03.156.191.147zm-.06.519q-.081-.053-.132-.02a.23.23 0 0 0-.083.108l.299-.012zm.416 1.42.139-.004a.16.16 0 0 0 .147-.075l-.253-.228q-.024.12-.112.137-.068.013-.174-.059-.135-.09-.179.035.093.005.191.147.075.148.129.183.023-.12.112-.137m.014 1.612a.6.6 0 0 0-.017-.205q-.017-.089-.062-.08a.5.5 0 0 0-.175.057l.138.111zm.913 5.383q-.027-.017-.205.016l.013.067.205-.017zm-1.058-5.77q-.12-.14-.13-.184-.008-.044.046-.008.026.018.071.01l.165.013.198-.292.167-.216q.01-.187.05-.218.04-.03.166.014.11.21.222.073l-.088-.099q-.108-.07-.102-.164l-.014-.067-.523.17.289.29-.071-.009q-.09.018-.18.15l-.149.19-.062-.08-.003-.138q-.023-.11-.125-.045l-.082.293-.023.12-.08.062-.077.084zm1.126 6.472-.094-.005q-.135.026-.113.253zm-.164-.245-.26-.02q.022.112.005.139.09-.018.116 0t.094.005.045-.124m.036 1.492q-.084-.19-.11-.21-.037.055-.058.059.084.075.106.186zm-1.047-6.188-.29.056.012.067q.112-.021.139-.003.026.018.116 0a.15.15 0 0 1 .023-.12m.147 3.363q.222.188.269-.052zm-.108 3.482.022-.005-.093-.12-.088-.098q.37.113.419.126a.7.7 0 0 1-.17-.151l.162-.124-.128-.298q-.236.092-.194.314l-.035.053-.054.08-.157.03q.168.153.276.224zm-.402-.753-.026-.133-.09.017.048.129zm.223.903a2 2 0 0 0-.145-.03.4.4 0 0 0-.141-.007q-.09.017-.14.119.295.081.497.043a.53.53 0 0 0 .255-.119zm-.413 1.094q-.314.06-.533-.058a.53.53 0 0 1-.273-.385q-.03-.156-.012-.183-.054-.75.01-1.847l-.004-.968-.018-1.635.025-1.181.002-.462q-.03-.87.013-1.71l.02-1.319.02-1.088-.003-.138q.017-.026-.004-.137-.018-1.635.025-2.243l-.003-1.084q.035-.537.03-2.105l.009-.902.01-1.247q.011-.072.031-.675-.011-.298.222-.585a.93.93 0 0 1 .547-.349q.072.01.497-.072l1.001-.217q.201-.038.273-.03.048.015.25-.025.492-.095.555-.13l.576-.135q.962-.185 1.371.127.226.21.332.513.46.927.587 1.34a.9.9 0 0 1 .146.271l.097.259.224.556.128.299.128.298.481 1.153.494 1.22 1.133 2.71.67 1.647.296.681 1.088 2.72.582 1.317q.133.206.514 1.147.382.94.544 1.533.026.018.061.195.11.556-.584.69l-2.325.45q-.403.077-.596-.023-.195-.101-.357-.462l-.648-1.651q-.176-.543-.308-.748l-.314-.655-2.933.544-.961.186-.035.653a2 2 0 0 0-.053.68l.012 1.127.012 1.013q.007.507-.485.601l-1.833.355zm15.319-16.129-.324.156.1.146zm-.225-1.7q.11-.045.123-.094.014-.05-.04-.204zm.202.534-.036-.21q-.026-.155.01-.218l-.013-.078q-.027-.021-.054-.177l-.042.307a.7.7 0 0 1-.074.26q-.132.055-.028.25.063.094.149.183a.42.42 0 0 0 .088-.317m-.156-.826-.069.013.01.046q.012.067.162.226a1.3 1.3 0 0 0-.103-.285m.062 3.195-.022-.113-.068.013.045.109zm-.956-4.077-.032-.04-.146.098.077.032zm.963 2.85q-.028-.018-.04-.085a.4.4 0 0 0 .155-.17.6.6 0 0 0 .06-.175 1 1 0 0 1 .023-.12l-.386-.043a.54.54 0 0 1 .205-.156l-.058-.058-.028-.018q-.086.04-.233.254l.105-.067q.018.09 0 .117-.01.072.017.09.072.125.081.17a.6.6 0 0 0 .063.198l-.074.107q.005.022.168.13-.031-.156-.058-.174m2.068 12.2-.208-.1q-.037.054-.032.076l.227.074zm-.264-.904q.037-.054.173-.08.137-.027.11-.162a3 3 0 0 0-.21.134zm-1.79-10.035-.086-.195-.045.009q.03.16.017.208zm-1.001-4.09q-.015-.068.005-.095-.133.049-.139.074t.083.124zm1.015 3.975q-.082-.054-.127-.045l-.033.076.11.073zm-.142-1.884q.14-.122.187-.13-.081-.055-.15-.042-.068.014-.1.09zm-.88-1.087.167-.021q.091.017.126-.016.167-.02.47-.173l.035-.174.093-.125.051-.12-.116-.097q-.101-.044-.108-.072l.009-.114q-.016-.054-.15-.066l-.268-.022q.15.208.181.316.115.382-.17.445-.042-.135-.091-.158-.05-.021-.083-.13l-.119.184-.085.152zm-.084-2.086q-.036.054-.028.1.01.044.046.05a.2.2 0 0 1 .063.022.7.7 0 0 1-.08-.172m.044 3.332q-.046.009-.058-.06-.028-.136.057-.433.039.204.021.23.017.091 0 .118zm3.057 10.33.025-.576q-.22.525-.198.706l.154.294zm-1.016-.622q-.008-.045-.054-.037l-.065.154.05.013zm-2.17-9.118q-.046.245-.024.24l.123.023a.4.4 0 0 0 .154.064zm1.071 1.304q-.021-.113.115-.14.122.025.1-.09l-.353-.119.043.344.109.073zm-.904-4.022q.045-.009.041-.031l-.158-.205q.009.045-.036.054zm2.796 13.865q.163.11.218.087t.078-.144zm-2.837-10.334q-.013-.134.115-.512l-.25-.137-.01.61q.026.27.203.39zm1.97 10.424.083-.062.078-.086q-.25.05-.292.08.085.077.132.068m-.838-7.013q-.044-.225-.217-.145l-.086.04q.059.06.312.15zm.08-2.072-.013-.068-.44-.079.18.317zm-1.345-.81a.8.8 0 0 0 .22-.207q.054-.081-.077-.15zm.231-2.14-.085-.076-.082-.055q-.023.004-.018.027l-.041.031.19.128zm.976 5.926-.191-.01.018.091q.158-.03.186-.013zm-1.121-7.813q.092-.134.182-.152l-.117-.119q-.054-.036-.077-.031-.069.012-.096.112-.028.1.022.113zm.09 2.78q-.03-.03-.171-.027a1 1 0 0 0 .226.191q-.027-.135-.056-.165m.032-.179q-.05.222-.269.193.073.009.113.096a.5.5 0 0 0 .097.192q.043.04.148-.028zm1.902 10.402.068-.131q.11-.162-.058-.177l-.106.303zm-1.835-11.154q-.138.38-.129.419l.143.359.16-.084.186-.088q-.016.142-.037.165.16.016.2.07l.069.07q.014.057.074.089l.177-.227-.26-.1-.223-.067q-.03-.115-.11-.124l-.004-.02-.025.005q-.026.003-.02.023l-.036.065-.075.011q-.089-.046-.094-.066a.64.64 0 0 0 .062-.369 1 1 0 0 1-.215.072.4.4 0 0 1 .1-.115zm-.159.989a.4.4 0 0 0-.136-.092.5.5 0 0 0 .079.162q.03.03.197.043zm2.14 10.979-.29-.038q.036.18.19.128l.114-.022zm-1.802-11.984q.282-.294.259-.411-.018-.087-.213-.292.03.147-.02.215l.041.204q-.12.023-.143.057-.025.036-.174.063l-.035-.174q.186-.156.116-.505l-.388.074q.06-.011.036-.129-.088-.133.114-.05l.132-.117.102-.11.15-.028q.12-.021.136.065.012.059-.013.244l.03-.006q.12-.022.133-.115 0-.15.228-.254l.173-.064-.068-.651q-.072.104-.324.243-.245.167-.27.353-.024.034-.084.046-.15.027-.185.005-.185-.146-.37.009-.05.07-.117.038-.07-.033-.086-.12-.007-.03.045-.084.05-.055.081-.06.15-.03.189-.067.038-.037.015-.154l-.041-.052q-.036-.023-.048-.082l-.163.272-.346-.025q.042.054.086.12.044.067.092.149-.15.027-.406-.014.064.32.1.343l.377-.131.106.22q.03.147-.18.186l.036-.128a.2.2 0 0 1 .031-.157q-.33.214-.374.298-.046.084.03.311l.282-.144.37-.16.158.785.21-.191zm-.456.205a.3.3 0 0 0 .148-.087.25.25 0 0 0 .085-.17q.032-.075-.094-.122zm.09.84-.036.054a.2.2 0 0 0 .073-.05.2.2 0 0 0 .06-.117q-.024.005-.097.113m-.97-.03.49-.148-.078-.174.118-.096-.255-.162q.053-.2.088-.256.035-.054.218-.163.024.137.12.165.095.03.143-.076.053-.083.104-.046l.052.037zm.006-1.207-.046.009.08.407zM60 29.585q-.012-.072.166-.19l.205.311-.128.413.41.085-.142.339.237.1a.33.33 0 0 0 .102-.305.6.6 0 0 0-.104-.231q.177.01.253.07l-.21-.336-.118.078-.157.113-.17-.626.27-.087.029.172q.012.075.07.087a.3.3 0 0 0 .14-.007l-.239-.252-.218-.257a.8.8 0 0 0 .144-.186l-.164-.065-.031.211a.3.3 0 0 1-.136.235l-.067-.138q-.055-.064.013-.181.035-.06.06-.295-.195 1.066-.215.942m1.102 1.214q-.018-.09-.208-.335.23.448.207.335m-1.987-6.158q-.027-.018-.036-.063l-.196.085.009.045zm-.952-1.11-.328.016.135.208zm-.164.225q-.085-.108-.519-.3L57 23.74l.592.01.39.079zm-1.05.954q.018-.027.132-.049-.015-.068-.04-.086l-.124.095zm.15-1.115-.187.013q-.018.027-.01.072l.191.01zm-.15.252q-.041-.243-.257-.197-.025.043-.007.147l.079.272q.03.175-.236.306l-.11-.266-.203.117q-.026.042-.092.02l-.124.027q.293.407.479.366.154-.033.519-.332.013-.11-.047-.46m6.057 17.778a.77.77 0 0 1-.599-.108q-.258-.172-.36-.576l-.07-.48-.275-1.285-.463-2.611a1.5 1.5 0 0 0-.089-.335 1.2 1.2 0 0 1-.08-.29l-.172-1-.212-.968-.167-1.096-.134-.56q-.088-.336-.447-2.169-.216-1.108-.233-1.317l-.242-1.362-.359-1.833a3 3 0 0 0-.16-.462l-1.614.312-.496.12a4.3 4.3 0 0 1-.954.067.46.46 0 0 1-.26-.126.48.48 0 0 1-.147-.265l-.258-1.077-.128-.54-.066-.456q-.057-.294.036-.477.094-.182.409-.266.085-.04.7-.16l.477-.092.364-.07.209-.017.223-.067 1.246-.265.527-.078.905-.199.845-.14.974-.212.981-.166 1.655-.344q.369-.047.679.091a.63.63 0 0 1 .376.48q.072.245.346 1.647.12.612-.31.953a.6.6 0 0 1-.26.12l-1.863.36-.918.132.11.566.406 2.199.336 1.72.69 3.53q.464 2.376.52 2.788l.54 2.643q.403 2.059.45 2.426.142.724-.577.91zm9.052-13.587.022-.005q-.123.187-.102.298.013.067.196.192l-.022.005zm1.468 8.611q-.013-.066.342-.946-.044.009-.21.33-.166.323-.17.416zm-1.95-10.412.027.018-.088.017.018-.027.017.09q-.036.053.017.089l.088-.018-.018.027zm-.938-4.07q.202-.13.089-.248l-.048-.014.04-.03-.055.31zm-.241-.9.154-.145.115-.116.03.04-.184-.01q-.11.023-.136.004l.018-.026.051.267zm1.028 4.537.026.018-.293.012.018-.027.012.067-.026-.018.294-.012-.018.027zm-.077.547-.026-.018.017-.026-.036.285-.026-.019.114.001-.018.027zm-.976-4.5.277-.217-.013.049-.17-.175.04-.03-.108.39zm1.279 6.082.044-.125.01.045-.202-.1.04-.03-.032.076-.013.049-.008-.045.2.099zm-1.113-5.098.101-.066.11-.022q.07.01.072-.037a.5.5 0 0 0-.01-.114l.048.014q-.018.026-.083.04l-.044.008q-.154.03-.146.19zm3.21 14.14-.514.056.014-.05q.252.251.34.234t.134-.258zm-2.34-9.48.145-.19.03.04a1 1 0 0 0-.258-.041l.018-.027.113.232zm2.473 10.772-.108-.326-.548-.007.014-.049q.21.144.327.282l-.044.009.12-.209.048.014zm-3.297-15.788-.228-.117-.193-.054.04-.031q.17.29.235.277.066-.013.137-.12zm.634 5.216q.021.112.059-.29l.026.019-.286.172.013-.05.228.118zm-.603-2.193.067-.013-.018.026-.039-.2.017.204zm.03-1.509-.126-.068-.118-.023q-.067.015-.084.04l.324.029zm-.013 1.83q.021-.005.057-.059l.119-.092.008.044-.162-.014-.1.066.016-.026zm.507 1.101.03.04-.403.034.017-.027.022.112q.17.058.236.046zm-1.354-5.166q-.034-.41.309-.407l-.018.026-.017-.09-.078-.053q-.027-.018-.048-.13-.022-.11.202-.132l.102-.066.14-.097.009.044-.605-.065.018-.027-.045.125q-.023.12.004.138.026.018.043.107.022.111-.095.458-.017.027.013.066l.013.067-.026-.018.096.027zm1.077 6.215-.018.027.197-.039.004.022zm-.254-.135q.044-.24.098-.32l.03.04-.232-.023.018-.027q.026.019.043.108l.087.213zm-.882-3.294.062-.035-.018.026-.122-.16.004.022.1.165zm1.984 10.59.065-.012-.017.027-.047-.245.026.018-.088.017.018-.027q.03.04.069.24zm.297 1.792a.5.5 0 0 1 .18-.012l.14.018q.132-.026.154-.146l.009.044a1.7 1.7 0 0 0-.328-.166l.044-.008-.169.31zm-.005-1.571.03.04-.324-.029.018-.026-.014.048.303.034-.018.026zm1.739 2.894.013-.05.049.014q-.068.245-.427.27-.22.042-.26.074l-.026-.018-.03-.156.027.017-.044.01q-.131.026-.179-.22.186-.221.23-.346.018-.026.106-.044.065-.012.083-.04a.8.8 0 0 0 .024-.35.9.9 0 0 0-.3-.496l.066-.13q.124-.185.033-.306l.048.013-.093.111q-.127.165.003.254l-.013.049-.44.087-.03-.04q.132-.143.146-.191l.084-.155.03.04-.329.064-.026-.017.076-.2-.04-.085.027.018-.29.15-.308.176.013-.049q.123.045.385.225l.162.13q.125.183.293.104l.132-.026.026.018q.043.222.21.744l-.017.027-.15.053q-.153.03-.253-.136l-.265-.433-.066.013q-.352.07-.3.337a.6.6 0 0 0 .113.232q.069.125.405.452l.018-.027-.16-.361.017-.027.084-.04.026.018a.7.7 0 0 0 .157.224l.091.12q.104.188.236.162a.66.66 0 0 0 .373.042q.132-.026.298-.105zm-1.922-2.187-.066.013.017-.027q.009.045.033.05.024.008.042-.019.044-.008.061-.035l.009.044zM69.12 21.38l.211-.088-.018.026-.152-.2-.263.051-.01.071q.009.045.127.068a.145.145 0 0 1 .132.09zm3.733 18.176q-.462.09-.531.081-.629.055-.83-.53-.033-.04-.074-.262-.215-1.114-.23-1.32l-.858-4.477-.84-4.389q-.135-.574-.76-3.85l-.697-3.631q-.105-.556.128-.823.234-.266.782-.374a1 1 0 0 1 .237-.07q.22-.042.29-.034.136-.004.531-.081l.413-.105a.88.88 0 0 1 .743.073q.335.2.402.672-.009.072.072.494l.205.954.828 4.322.79 4.006.563 3.056.79 4.006.116.601q.09.469.075.69a.7.7 0 0 1-.142.387q-.177.267-.572.344zm11.908-11.753.177-.08-.222-.027q-.07.014-.15.212zm-.394-.042-.01-.045-.004-.022-.032-.04q-.056.08-.047.124l-.019.027.111.071q-.018-.088 0-.115m-2.771-8.293q-.057.08-.043.146.018.09.185.081a.34.34 0 0 0-.142-.227m1.647 8.456q-.022-.111-.19-.219l-.033.19q.013.068.222.144.019-.026 0-.115m-2.27-9.147.038-.054q.023-.003.018-.026l-.138-.09-.066.036zm-.142.602q-.005-.021-.181-.058l.157.178zm-.382-.69-.217-.12-.056.079q.078.032.217.121zm1.12 9.661q.07-.012.247-.092l-.065-.08q-.018.027-.204.061zm-1.044-.866a1 1 0 0 0 .204.112q.037.005.112-.102-.057-.036-.316-.01m-1.622-8.807q-.203-.17-.278.052zm.095 1.412q-.07.013-.145.12.204.169.33.076-.116-.208-.185-.196m1.594 8.674q-.037-.063-.154-.64a3 3 0 0 0-.075-.31 2 2 0 0 1-.038-.13q.009.044.022.168t.077.32q.104.396.123.37l.028.017.051.014zm-.992-8.555-.027-.134.052-.101.052-.102q.074.125.138.147a.4.4 0 0 0 .204-.003l.2-.084q.02-.026.159-.052a1 1 0 0 0-.003-.369q-.07.014-.079-.031l-.085.292-.324-.17q-.13-.045-.148-.134a.27.27 0 0 1 .052-.217l.057-.08.047-.124q-.004-.022.033-.075-.366-.255-.542-.176l-.242.114q-.322.198-.384.486l-.113-.024a1 1 0 0 0-.16-.017l.17.245q.045.108.11.13.066.021.228-.008l-.046.008q.03.156.221.259l.254.183zm-.973-.995-.023-.111-.186.034q.028.018.037.063l.009.044zm1.256 7.837q.018-.027.005-.093l-.056-.036-.084.177q.082.053.13.045-.015-.067.005-.093m.041.8q-.013-.069-.227-.05l.208.191zm-.731-1.94q.065-.035 0-.23a3 3 0 0 1-.196.335l.046-.008q.005.022.028.018zm.871 5.119-.013-.067q-.164.03-.181.056l.009.045zm-1.447-5.934q-.028-.018-.037-.063l-.05-.014-.02.027q-.037.054-.032.076l.046-.009q.004.022.028.018zm.013.54q-.048-.004-.119.125l.358-.02q-.19-.103-.239-.106m.293 1.201-.014-.066-.278.052.013.066zm.125 1.683.015-.164q-.028-.133-.273-.157zm-1.99-9.43.08-.084-.149-.018q-.046.01-.037.053-.018.027.013.182a.4.4 0 0 0 .094-.133m.11.245q-.064-.022-.292.043.028.018.556.127a1.4 1.4 0 0 0-.263-.17m2.448 12.93.01-.07q-.015-.067-.17-.13.008.045-.01.071l-.015.048zm.122.6-.37-.046.328.193zm-.163 1.091q-.03-.017-.06-.173-.05-.129-.245-.139.174.267.235.325zm-.256-.782q-.036-.177-.25-.161l.125.138.129.16zm-.15-.503a.2.2 0 0 0-.042-.084q-.041-.084-.088-.076l-.176.079q.203.055.342.144-.027-.018-.037-.062m-1.278-9.009-.125-.022-.153-.041a.7.7 0 0 1 .104-.204l.254.183.148.134.418-.077-.027-.133a.24.24 0 0 1 .033-.191q.047-.009-.013-.067l-.041-.085a1 1 0 0 0 .015-.164l-.097-.236q.13-.07.108-.18-.019-.09-.046-.108t-.055-.151a1.4 1.4 0 0 1-.354.274l-.036-.178-.188.38-.288.008q.074.125.162.2l.12.116-.298.079-.022-.111a.27.27 0 0 1-.032-.156q.01-.185.072-.36.005-.09.167-.123l.074.125q.075-.105.07-.128l.075-.106q.019-.026.01-.071.027.018.097.005l.13.045q.276-.305.253-.416-.014-.067-.138-.205-.117.137-.173.101-.027-.017-.143.004a.3.3 0 0 0-.248.207l-.027-.133.086-.293.287.109.182-.173-.265-.711a.8.8 0 0 1-.022-.227l.024-.12-.113.16-.148-.134a.9.9 0 0 1-.207-.192l.245.023.086-.293.194.126q.138.09.101.143.015.066.106.164l.124.138a1 1 0 0 1 .081-.314.6.6 0 0 0 .094-.248l-.338-.006.13-.07q.065-.037.154-.075l-.111-.072q-.023.004-.135-.067a.54.54 0 0 0-.043.262q-.038.053-.06.056-.047.01-.056-.035l-.056-.036-.11-.072a.35.35 0 0 1 .144-.119q.163-.146.173-.216.019-.027.01-.071-.108-.05-.116-.094a.15.15 0 0 1 .024-.12q.019-.025.01-.07l.302-.057-.264-.112q-.093.017-.117.137-.084.177-.173.216-.112.045-.07.128l.004.023q.02.09-.068.14a.5.5 0 0 1-.11.054l-.038.284-.366-.024q-.311-.219-.337-.352l.01-.187a.7.7 0 0 0-.217.121q-.081.074-.063.162-.247.208-.16.283l.2-.083-.04-.2q.07-.013.088-.04.019-.026.066-.034l.178.404q.066-.034.32-.082l.042.2-.187.15q-.166.007-.232-.073l-.133.648a.4.4 0 0 0 .093-.133q.07-.128.191-.128l-.028.098q.01.045-.01.07a.315.315 0 0 0-.145.35q-.019.028-.005.094.008.045-.015.049l-.14.026q.098.004.116.093.015.068-.08.2l.305.197.033.04-.042.03h-.242q-.082-.055-.097-.121-.037.054-.019.142.017.089.116.094l.143.112q-.055-.036-.316-.011.14.09.162.2.013.067-.08.2l.018.089.183.542q.069-.012.097.005l.05.014-.093.248.036.062q.07-.012.076-.106.036-.053.11-.044-.016.027 0 .116.014.066-.117.137a.15.15 0 0 1-.023.12l.167-.008q.033-.075.079-.084l.14-.026.027.017q.074.125.213.1.144-.005.2.031zm1.207 10.798a.9.9 0 0 0-.174-.383l-.023.005q.068.333.104.395zm-2.69-13.589q-.078-.03-.083-.053a.7.7 0 0 0-.053.332 1 1 0 0 1 .136-.279m2.61 16.694q-.252-.114-.297-.337-.047-.107-.146-.595l-.247-1.338-.29-1.306-.361-1.778-.348-1.71-.362-1.778-.254-1.13q-.099-.488-.093-.581 0-.116-.072-.471a7 7 0 0 1-.223-.858q-.077-.378-.067-.448l-.37-1.823-.361-1.777-.362-1.778-.154-.755q-.09-.675.516-.788l1.881-.35.256-.047q.418-.078.483-.113l.553-.126 1-.186.79-.146.998-.186.813-.151 1.046-.195q.418-.078 1.124-.163a.77.77 0 0 1 .598.155.83.83 0 0 1 .294.556l.308 1.395q.108.534-.084.892a.58.58 0 0 1-.546.401q-.074-.009-.445.06a5 5 0 0 0-.554.126l-.297.078-.26.026q-.12-.001-.678.103l-1.297.264-1.928.358a.7.7 0 0 1-.237.021 1 1 0 0 0-.26.026l.7 3.444.388 1.91 1.79-.332 1.812-.337.906-.169q.78-.075.933.68l.263 1.173q.104.512.099.604.153.756-.66.907l-1.975.367a71 71 0 0 1-2.285.379q-.047.01-.066.035-.019.027-.111.044.167.822.17.96l.145.71.353 1.734.356 1.755q.055.151.268 1.196.19.586-.289.953l-.089.039a.4.4 0 0 1-.13.07l-1.412.286q-.582.108-.702.108a.87.87 0 0 1-.53-.063m20.296-12.479q.154-.28.222-.292l.068-.013.126-.07q.018-.025.108-.043-.05-.128-.139-.11l-.085.039-.023.004q-.09.017-.12-.136-.06-.056-.023-.11a.4.4 0 0 0 .029-.21.6.6 0 0 0-.148-.267q.019-.027.064-.035l.04-.03q.068-.014.122-.092.055-.079.131-.16l-.05.213.126.044.148.04-.45.2a.35.35 0 0 1 .174.058l.099.026q.27-.05.262-.208l-.026-.132q-.027-.131-.278-.22-.026-.131-.053-.15l-.367.388a1 1 0 0 1-.21-.119l-.014.048q.008.045-.01.07-.004.093-.121.091l.004.023-.014.047a2 2 0 0 0 .324-.015q.071.123.076.145a.63.63 0 0 1-.047.35q-.06.17-.057.533l-.451-.506q.148.04.215.028.09-.017.136-.14l.1-.2-.499-.042-.45-.03q.054.15.229.208l.278.106-.029.324q-.08-.052-.26-.019.057.058.034.175-.041.145.062.194l.137-.254zm-3.557-2.488.077-.082.081-.061-.009-.044q-.022.005-.026-.018l-.163.122zm1.443 6.64a.8.8 0 0 1-.003-.25q-.158.03-.185.012a.5.5 0 0 0-.184.012zm-1.807-6.593.126-.183q-.239.09-.266.13-.027.039.035.231zm1 6.767q.045-.007.055-.078l-.08-.053q-.067.013-.055.079l.05.013zm-1.45-6.796.014-.048-.166-.128q.084.19.111.206zm-.1.905.028-.096-.084-.188q-.034.302-.016.389zm.227-1.088.136-.14.076-.082-.039-.198.09.097.058.058.362-.41q-.135.026-.2-.008-.066-.033-.073-.19-.01-.045-.077-.031l-.126.069-.198-.054-.193-.031q.087-.153.176-.17.046-.01.22.05.13.066.28-.008l-.014-.066.06-.284q.078-.196-.065-.329l-.401.099q-.014-.066-.098-.14l-.23.134.143.132-.315.06a1.4 1.4 0 0 1-.111-.32q-.063.034-.086.152-.064.149-.096.166-.03.018-.157-.027-.18.262-.299.375.009.045.036.061.026.019.044.105-.018.027.004.136.03.153.38.383l-.02.254-.041.258.343-.27q.018-.026.086-.039.112-.021.14-.003l.166.014q-.216-.141-.237-.251a.24.24 0 0 1 .032-.188l.293-.055zm-.58 2.474a.6.6 0 0 1 .215.027q.13.067.216.028l-.318-.304q-.045.009-.027.097-.024.117-.126.069l-.023.004q-.112.022-.069.24.065-.147.132-.16m-.597-.296.397-.12q.21-.109.193-.083a1 1 0 0 0-.215-.141l-.176.17zm-.03.551-.224-.07q-.045.008-.145.208.112-.021.37-.138m-.359-.16q-.013-.065.005-.091-.023.005-.027-.018l-.05-.013a.2.2 0 0 1-.085.152q.007.045.054.036a.15.15 0 0 0 .103-.065m.043 1.152q.249-.16.28-.235l.01-.07q-.013-.065-.098-.14-.108-.07-.126-.159zm-.093-.232q-.337.063-.304-.238a.5.5 0 0 0 .169-.09q.037-.04.04-.154l-.466.247.184.215.156.198zm-.465-.458q.018-.026.063-.035l.041-.03q-.005-.022.032-.075.153-.051.019-.253l-.112-.093-.099-.027-.126.07-.189-.01a.5.5 0 0 0-.202.038l.022.11q-.006.092.107.07.27-.05.31.147l-.01.184zm-.57.654a.5.5 0 0 1 .117-.114q-.25-.088-.23.135l.027.018.01.043zm-.243-.807q.126-.127.051-.271l-.248.047.036.061q.022.11-.1.201a.7.7 0 0 0-.18.148q.314-.06.44-.186m-.4-.072.019-.14q.018-.025 0-.114-.025-.131-.165-.128a.35.35 0 0 0-.024.232q.027.132.183.215zm-.005 1.024.073-.218.207-.017.047-.464q-.065.262-.312.31-.15.075-.14.23l-.015.163q.188.123.235.126.048.002.12-.103a.35.35 0 0 1-.216-.027m-.232-.456q-.105.065-.104.121 0 .058.107.128a1.2 1.2 0 0 0-.003-.25m-.129-.294q.037-.052.059-.057a.21.21 0 0 0-.184-.102l-.013.048zm-.186-.465-.027-.018-.05-.013q-.021.005-.018.026-.066.012-.053.078.002.022.026.018zm.036.766-.053-.15-.017-.087q-.045-.22-.292-.172l.228.207q-.109.27-.056.42.22-.065.19-.218m4.372 4.812q-.765.144-.918-.85l-.087-.438-.253-1.385-.088-.324-.039-.311-.092-.46-1.373.26-.459.04q-.14.005-.567.086l-.536.123q-.36.07-.704-.253-.135-.087-.157-.197l-.197-.873-.135-.793q-.07-.35.043-.542t.479-.352l.644-.167.796-.105 1.486-.282q.006-.32-.042-.56l-.145-.61-.158-.788a17 17 0 0 0-.259-1.065.5.5 0 0 1 .042-.315.73.73 0 0 1 .236-.283 1.65 1.65 0 0 1 .649-.26l.382-.072q.594-.066 1-.144.95-.27 1.13.628l.502 2.52.053.262q.293-.055.387-.05.072.01.387-.05l1.486-.282q.202-.038.419-.125.441-.128.732.043.291.174.379.61.032.04.093.347l.121.727.062.307q.132.43.012.646t-.539.34q-.396.121-.802.198l-.545.08q-.071-.009-.522.076-.45.086-.513.12l-.536.124.123.614.219 1.095.293 1.354a.78.78 0 0 1-.138.652.94.94 0 0 1-.596.351l-.86.14z" fill="#7c2900"/><path d="M18 26.643c2.99-12.51 13.102-22.76 26.672-25.374C58.242-1.343 71.495 4.41 79 14.898m6 26.745c-2.134 13.86-12.69 25.534-27.196 28.364S29.153 65.985 22 53.937" stroke="#3a3a3d" stroke-width="1.285" stroke-linecap="round" stroke-linejoin="round"/></svg>
