<svg width="89" height="67" viewBox="0 0 89 67" fill="none" xmlns="http://www.w3.org/2000/svg">
<path d="M49.4839 46.4953C50.1834 45.921 50.7805 45.2149 51.2283 44.392C53.1109 40.925 51.6181 36.6923 47.895 34.9395C44.1706 33.1868 39.6259 34.5765 37.7434 38.0435C37.2968 38.8664 37.0402 39.7329 36.9575 40.5981C37.0698 40.2749 37.2104 39.9554 37.3807 39.6434C39.1509 36.3827 43.4243 35.0763 46.9254 36.7246C50.4264 38.3729 51.8303 42.3521 50.0601 45.6127C49.8898 45.9247 49.6974 46.2193 49.4839 46.4953Z" fill="white"/>
<path d="M51.7711 49.9821C52.7247 49.0187 53.4365 47.926 53.909 46.7724C53.6203 47.1739 53.2959 47.5605 52.9332 47.926C49.1533 51.7448 42.7643 51.9872 38.6624 48.468C34.5605 44.9488 34.3002 38.9994 38.0801 35.1806C38.4428 34.8139 38.8289 34.4807 39.236 34.1812C38.0382 34.7144 36.9279 35.464 35.9743 36.4274C31.9538 40.4886 32.2314 46.8159 36.5936 50.5588C40.9557 54.3018 47.7507 54.0445 51.7711 49.9821Z" fill="currentColor"/>
<mask id="mask0_854_519" style="mask-type:luminance" maskUnits="userSpaceOnUse" x="35" y="0" width="47" height="56">
<path d="M39.0917 0C32.8569 8.39085 36.5973 15.4963 40.7016 19.9764C44.2558 23.8561 50.0453 26.5499 55.7595 30.9293C62.6494 36.2112 67.4298 46.7874 56.1432 55.8818C79.3529 54.0868 86.0911 39.0964 79.4985 29.455C70.8519 16.809 46.3258 17.2205 39.0917 0Z" fill="white"/>
</mask>
<g mask="url(#mask0_854_519)">
<path d="M86.0911 0H32.8569V55.8818H86.0911V0Z" fill="url(#paint0_linear_854_519)"/>
</g>
<mask id="mask1_854_519" style="mask-type:luminance" maskUnits="userSpaceOnUse" x="36" y="0" width="30" height="56">
<path d="M39.0917 0C32.8568 8.39085 37.4077 15.1346 41.5121 19.6147C45.0662 23.4944 50.0452 26.5499 55.7594 30.9305C62.6493 36.2124 67.4297 46.7886 56.1431 55.8831C56.8524 55.8284 57.547 55.76 58.2255 55.6817C64.9118 50.8871 66.9708 45.5157 64.4677 37.5115C60.314 24.2315 30.7362 19.9106 39.0917 0Z" fill="white"/>
</mask>
<g mask="url(#mask1_854_519)">
<path d="M67.4297 0H30.7362V55.8818H67.4297V0Z" fill="url(#paint1_linear_854_519)"/>
</g>
<mask id="mask2_854_519" style="mask-type:luminance" maskUnits="userSpaceOnUse" x="38" y="0" width="8" height="15">
<path d="M45.7472 8.89679C42.9591 6.53243 40.6325 3.66711 39.0917 0C39.0917 0 37.0475 7.58657 43.6611 14.5889C43.6611 14.5889 40.9051 10.0616 40.4844 5.77539C40.4844 5.77539 41.3356 7.99058 45.5744 11.2686L45.7484 8.89679H45.7472Z" fill="white"/>
</mask>
<g mask="url(#mask2_854_519)">
<path d="M45.7471 0H37.0475V14.5889H45.7471V0Z" fill="url(#paint2_linear_854_519)"/>
</g>
<mask id="mask3_854_519" style="mask-type:luminance" maskUnits="userSpaceOnUse" x="35" y="0" width="31" height="56">
<path d="M39.0917 0C32.8569 8.39085 36.5973 15.4963 40.7016 19.9764C44.2558 23.8561 50.0453 26.5499 55.7595 30.9293C62.6494 36.2112 67.4298 46.7874 56.1432 55.8818C56.8525 55.8271 57.5471 55.7587 58.2256 55.6804C64.9119 50.8858 66.9709 45.5145 64.4678 37.5102C60.3141 24.2315 29.6655 20.5445 39.0917 0Z" fill="white"/>
</mask>
<g mask="url(#mask3_854_519)">
<path d="M67.4286 0H29.6655V55.8818H67.4286V0Z" fill="url(#paint3_linear_854_519)"/>
</g>
<mask id="mask4_854_519" style="mask-type:luminance" maskUnits="userSpaceOnUse" x="44" y="8" width="29" height="48">
<path d="M64.2876 18.8787C57.7469 15.9537 50.6917 13.2313 45.4018 8.60083C43.6624 14.6186 47.6273 19.7153 51.8439 23.6298C61.2887 32.3985 72.5407 43.8026 56.1444 55.8817C56.1444 55.8817 63.1132 51.7783 66.8623 49.3344C70.6125 46.8892 74.7415 39.4854 70.3115 29.8415C68.5252 25.9531 68.1267 21.6819 65.6484 19.8284C65.2042 19.4953 64.749 19.1808 64.2876 18.8799" fill="white"/>
</mask>
<g mask="url(#mask4_854_519)">
<path d="M74.7415 8.60083H43.6624V55.8817H74.7415V8.60083Z" fill="url(#paint4_linear_854_519)"/>
</g>
<mask id="mask5_854_519" style="mask-type:luminance" maskUnits="userSpaceOnUse" x="46" y="3" width="28" height="53">
<path d="M48.8041 3.3291C51.9055 12.1463 60.9494 13.6256 67.5691 18.9995C70.0462 21.0108 70.2695 25.4399 71.9411 29.5247C76.0874 39.6596 71.4921 47.1505 67.5086 49.531C63.5252 51.9127 56.1431 55.8819 56.1431 55.8819C73.6226 44.0353 62.5037 31.8182 53.1367 22.3944C48.2231 17.4506 43.74 10.8386 48.8041 3.3291Z" fill="white"/>
</mask>
<g mask="url(#mask5_854_519)">
<path d="M76.0874 3.3291H43.74V55.8819H76.0874V3.3291Z" fill="url(#paint5_linear_854_519)"/>
</g>
<mask id="mask6_854_519" style="mask-type:luminance" maskUnits="userSpaceOnUse" x="48" y="3" width="12" height="17">
<path d="M48.8042 3.3291C50.7879 8.969 55.2031 11.6068 59.8589 14.1813L59.5332 16.7855C54.7886 14.1216 51.9586 10.5751 51.9586 10.5751C53.724 14.8923 56.8858 19.4035 56.8858 19.4035C46.707 10.2879 48.803 3.3291 48.803 3.3291" fill="white"/>
</mask>
<g mask="url(#mask6_854_519)">
<path d="M59.8601 3.3291H46.7083V19.4035H59.8601V3.3291Z" fill="url(#paint6_linear_854_519)"/>
</g>
<mask id="mask7_854_519" style="mask-type:luminance" maskUnits="userSpaceOnUse" x="46" y="3" width="22" height="53">
<path d="M61.5872 52.9058C58.6832 54.5156 56.1431 55.8817 56.1431 55.8817C73.6226 44.0351 63.8003 31.9386 54.4333 22.5147C49.5197 17.5709 43.7401 10.8384 48.8042 3.32764C48.8042 3.32764 46.9031 9.92347 51.1826 15.5982C55.4621 21.2729 65.9345 28.7016 66.9215 39.2629C67.4803 45.2446 65.1758 49.6787 61.5872 52.9045" fill="white"/>
</mask>
<g mask="url(#mask7_854_519)">
<path d="M73.6227 3.32886H43.7401V55.8817H73.6227V3.32886Z" fill="url(#paint7_linear_854_519)"/>
</g>
<mask id="mask8_854_519" style="mask-type:luminance" maskUnits="userSpaceOnUse" x="46" y="3" width="22" height="53">
<path d="M61.5872 52.906C58.6832 54.5158 56.1431 55.8819 56.1431 55.8819C73.6226 44.0353 62.5037 31.8182 53.1367 22.3944C48.2231 17.4506 43.74 10.8386 48.8041 3.3291C48.8041 3.3291 46.3517 10.1064 50.6312 15.7811C54.9107 21.4558 65.9333 28.703 66.9214 39.2643C67.4803 45.2461 65.1758 49.6802 61.5872 52.906Z" fill="white"/>
</mask>
<g mask="url(#mask8_854_519)">
<path d="M73.6225 3.3291H43.74V55.8819H73.6225V3.3291Z" fill="url(#paint8_linear_854_519)"/>
</g>
<mask id="mask9_854_519" style="mask-type:luminance" maskUnits="userSpaceOnUse" x="56" y="13" width="18" height="43">
<path d="M59.0484 13.73C61.3368 15.0141 63.7153 16.2398 65.9186 17.7651C66.681 18.4413 67.4902 19.1051 68.3242 19.7652C70.1142 22.0015 70.4572 25.8986 71.9412 29.5247C76.0875 39.6596 70.3239 47.8478 67.5087 49.531C64.6936 51.2141 58.1898 54.747 56.1432 55.8819C65.7594 50.2271 67.9615 41.4782 66.4515 35.269C64.5961 27.6402 57.0018 21.8598 59.0484 13.7288" fill="white"/>
</mask>
<g mask="url(#mask9_854_519)">
<path d="M76.0875 13.73H56.1432V55.8831H76.0875V13.73Z" fill="url(#paint9_linear_854_519)"/>
</g>
<mask id="mask10_854_519" style="mask-type:luminance" maskUnits="userSpaceOnUse" x="56" y="8" width="27" height="48">
<path d="M56.1432 55.8819C67.5618 50.2072 70.3165 41.5553 69.2223 35.9216C67.4569 26.8322 56.3073 19.1462 62.9874 8.87451C64.3519 18.9075 80.8469 18.7707 82.5062 34.1652C83.3944 42.4043 76.6562 55.5985 56.1432 55.8819Z" fill="white"/>
</mask>
<g mask="url(#mask10_854_519)">
<path d="M83.3944 8.87573H56.1432V55.8831H83.3944V8.87573Z" fill="url(#paint10_linear_854_519)"/>
</g>
<mask id="mask11_854_519" style="mask-type:luminance" maskUnits="userSpaceOnUse" x="57" y="8" width="16" height="48">
<path d="M57.415 55.6072C68.7806 49.2563 69.5701 41.0121 68.4771 35.3784C66.7118 26.2889 56.3072 19.1462 62.9874 8.87451C57.7444 20.0946 74.353 28.294 72.3532 41.8574C71.507 47.5967 67.8356 53.4741 57.415 55.6059" fill="white"/>
</mask>
<g mask="url(#mask11_854_519)">
<path d="M74.353 8.87573H56.3073V55.6072H74.353V8.87573Z" fill="url(#paint11_linear_854_519)"/>
</g>
<mask id="mask12_854_519" style="mask-type:luminance" maskUnits="userSpaceOnUse" x="56" y="8" width="16" height="48">
<path d="M56.1432 55.8819C67.5087 49.531 68.825 40.7709 67.7308 35.1372C65.9655 26.0478 56.3073 19.1461 62.9874 8.87573C57.1289 20.0959 73.6079 28.0541 71.6081 41.6175C70.7619 47.3568 67.093 53.7401 56.1444 55.8831" fill="white"/>
</mask>
<g mask="url(#mask12_854_519)">
<path d="M73.6079 8.87573H56.1432V55.8831H73.6079V8.87573Z" fill="url(#paint12_linear_854_519)"/>
</g>
<mask id="mask13_854_519" style="mask-type:luminance" maskUnits="userSpaceOnUse" x="62" y="8" width="21" height="40">
<path d="M62.9874 8.87576C60.5151 19.0442 78.0206 19.7379 75.1067 37.8161C75.1067 37.8161 78.5954 31.2501 75.2301 23.3341C75.2301 23.3341 84.813 32.5243 74.9673 47.3643C74.9673 47.3643 83.7039 40.1345 82.0829 31.6827C81.4032 28.1399 79.2086 24.8532 76.1639 22.2203C70.5767 17.3872 63.5043 14.3528 62.9861 8.87451" fill="white"/>
</mask>
<g mask="url(#mask13_854_519)">
<path d="M84.813 8.87573H60.5151V47.3655H84.813V8.87573Z" fill="url(#paint13_linear_854_519)"/>
</g>
<path d="M46.8673 30.3887C43.5439 30.3887 40.4968 31.4913 38.1257 33.3261C39.838 32.4522 41.8032 31.9537 43.8943 31.9537C50.5263 31.9537 55.9038 36.9609 55.9038 43.1365C55.9038 49.3122 50.5263 54.3194 43.8943 54.3194C41.8168 54.3194 39.8627 53.8284 38.1578 52.9632C40.5239 54.783 43.5587 55.877 46.8673 55.877C54.4271 55.877 60.5546 50.1712 60.5546 43.1328C60.5546 36.0945 54.4271 30.3887 46.8673 30.3887Z" fill="currentColor"/>
<path d="M49.6233 46.4953C50.3228 45.921 50.9199 45.2149 51.3677 44.392C53.2503 40.925 51.7575 36.6923 48.0344 34.9395C44.31 33.1868 39.7653 34.5765 37.8828 38.0435C37.4362 38.8664 37.1796 39.7329 37.0969 40.5981C37.2092 40.2749 37.3498 39.9554 37.5201 39.6434C39.2903 36.3827 43.5637 35.0763 47.0648 36.7246C50.5658 38.3729 51.9697 42.3521 50.1995 45.6127C50.0292 45.9247 49.8368 46.2193 49.6233 46.4953Z" fill="#E30613"/>
<path d="M31.8304 37.4928L18.9833 37.3747L31.8304 37.2566V37.4928Z" fill="currentColor"/>
<path d="M33.8981 35.4827L21.0127 35.4019L33.8981 35.3198V35.4827Z" fill="currentColor"/>
<path d="M31.11 47.2524L12.2809 47.01L31.11 46.7676V47.2524Z" fill="currentColor"/>
<path d="M30.429 42.2774L15.9362 42.127L30.429 41.9753V42.2774Z" fill="currentColor"/>
<path d="M30.8387 39.8982L17.672 39.7627L30.8387 39.626V39.8982Z" fill="currentColor"/>
<path d="M30.4537 44.7202L14.0845 44.5374L30.4537 44.356V44.7202Z" fill="currentColor"/>
<path d="M38.6205 56.317L2.22925 56.0174L38.6205 55.7166V56.317Z" fill="currentColor"/>
<path d="M35.55 54.2845L4.8717 53.9837L35.55 53.6829V54.2845Z" fill="currentColor"/>
<path d="M33.4478 51.94L7.40186 51.6752L33.4478 51.4104V51.94Z" fill="currentColor"/>
<path d="M32.3967 49.5844L10.2811 49.3358L32.3967 49.0872V49.5844Z" fill="currentColor"/>
<path d="M51.9105 49.9821C52.8641 49.0187 53.5759 47.926 54.0484 46.7724C53.7597 47.1739 53.4353 47.5605 53.0726 47.926C49.2927 51.7448 42.9037 51.9872 38.8018 48.468C34.6999 44.9488 34.4396 38.9994 38.2195 35.1806C38.5822 34.8139 38.9684 34.4807 39.3755 34.1812C38.1776 34.7144 37.0673 35.464 36.1137 36.4274C32.0933 40.4886 32.3708 46.8159 36.733 50.5588C41.0952 54.3018 47.8901 54.0445 51.9105 49.9821Z" fill="currentColor"/>
<mask id="mask14_854_519" style="mask-type:luminance" maskUnits="userSpaceOnUse" x="35" y="0" width="48" height="56">
<path d="M39.2311 0C32.9963 8.39085 36.7367 15.4963 40.8411 19.9764C44.3952 23.8561 50.1847 26.5499 55.8989 30.9293C62.7888 36.2112 67.5692 46.7874 56.2826 55.8818C79.4923 54.0868 86.2305 39.0964 79.6379 29.455C70.9925 16.809 46.4652 17.2205 39.2311 0Z" fill="white"/>
</mask>
<g mask="url(#mask14_854_519)">
<path d="M86.2305 0H32.9963V55.8818H86.2305V0Z" fill="url(#paint14_linear_854_519)"/>
</g>
<mask id="mask15_854_519" style="mask-type:luminance" maskUnits="userSpaceOnUse" x="36" y="0" width="30" height="56">
<path d="M39.2311 0C32.9962 8.39085 37.5471 15.1346 41.6515 19.6147C45.2056 23.4944 50.1846 26.5499 55.8988 30.9305C62.7887 36.2124 67.5691 46.7886 56.2825 55.8831C56.9918 55.8284 57.6864 55.76 58.3649 55.6817C65.0512 50.8871 67.1102 45.5157 64.6071 37.5115C60.4534 24.2315 30.8756 19.9106 39.2311 0Z" fill="white"/>
</mask>
<g mask="url(#mask15_854_519)">
<path d="M67.5691 0H30.8756V55.8818H67.5691V0Z" fill="url(#paint15_linear_854_519)"/>
</g>
<mask id="mask16_854_519" style="mask-type:luminance" maskUnits="userSpaceOnUse" x="38" y="0" width="8" height="15">
<path d="M45.8866 8.89679C43.0985 6.53243 40.7719 3.66711 39.2311 0C39.2311 0 37.1869 7.58657 43.8005 14.5889C43.8005 14.5889 41.0445 10.0616 40.6238 5.77539C40.6238 5.77539 41.4751 7.99058 45.7139 11.2686L45.8878 8.89679H45.8866Z" fill="white"/>
</mask>
<g mask="url(#mask16_854_519)">
<path d="M45.8865 0H37.1869V14.5889H45.8865V0Z" fill="url(#paint16_linear_854_519)"/>
</g>
<mask id="mask17_854_519" style="mask-type:luminance" maskUnits="userSpaceOnUse" x="35" y="0" width="31" height="56">
<path d="M39.2311 0C32.9963 8.39085 36.7367 15.4963 40.8411 19.9764C44.3952 23.8561 50.1847 26.5499 55.8989 30.9293C62.7888 36.2112 67.5692 46.7874 56.2826 55.8818C56.9919 55.8271 57.6865 55.7587 58.365 55.6804C65.0513 50.8858 67.1103 45.5145 64.6072 37.5102C60.4535 24.2315 29.8061 20.5445 39.2311 0Z" fill="white"/>
</mask>
<g mask="url(#mask17_854_519)">
<path d="M67.5692 0H29.8062V55.8818H67.5692V0Z" fill="url(#paint17_linear_854_519)"/>
</g>
<mask id="mask18_854_519" style="mask-type:luminance" maskUnits="userSpaceOnUse" x="45" y="8" width="28" height="48">
<path d="M64.427 18.8787C57.8863 15.9537 50.8311 13.2313 45.5412 8.60083C43.8018 14.6186 47.7667 19.7153 51.9833 23.6298C61.4281 32.3985 72.6801 43.8026 56.2838 55.8817C56.2838 55.8817 63.2526 51.7783 67.0017 49.3344C70.7519 46.8892 74.8809 39.4854 70.4509 29.8415C68.6646 25.9531 68.2662 21.6819 65.7878 19.8284C65.3437 19.4953 64.8884 19.1808 64.427 18.8799" fill="white"/>
</mask>
<g mask="url(#mask18_854_519)">
<path d="M74.8809 8.60083H43.8018V55.8817H74.8809V8.60083Z" fill="url(#paint18_linear_854_519)"/>
</g>
<mask id="mask19_854_519" style="mask-type:luminance" maskUnits="userSpaceOnUse" x="46" y="3" width="28" height="53">
<path d="M48.9449 3.3291C52.0463 12.1463 61.0901 13.6256 67.7098 18.9995C70.187 21.0108 70.4103 25.4399 72.0819 29.5247C76.2281 39.6596 71.6328 47.1505 67.6494 49.531C63.6659 51.9127 56.2838 55.8819 56.2838 55.8819C73.7633 44.0353 62.6445 31.8182 53.2774 22.3944C48.3638 17.4506 43.8808 10.8386 48.9449 3.3291Z" fill="white"/>
</mask>
<g mask="url(#mask19_854_519)">
<path d="M76.2269 3.3291H43.8795V55.8819H76.2269V3.3291Z" fill="url(#paint19_linear_854_519)"/>
</g>
<mask id="mask20_854_519" style="mask-type:luminance" maskUnits="userSpaceOnUse" x="48" y="3" width="12" height="17">
<path d="M48.9448 3.3291C50.9285 8.969 55.3437 11.6068 59.9995 14.1813L59.6738 16.7855C54.9292 14.1216 52.0993 10.5751 52.0993 10.5751C53.8646 14.8923 57.0264 19.4035 57.0264 19.4035C46.8476 10.2879 48.9436 3.3291 48.9436 3.3291" fill="white"/>
</mask>
<g mask="url(#mask20_854_519)">
<path d="M59.9995 3.3291H46.8477V19.4035H59.9995V3.3291Z" fill="url(#paint20_linear_854_519)"/>
</g>
<mask id="mask21_854_519" style="mask-type:luminance" maskUnits="userSpaceOnUse" x="46" y="3" width="22" height="53">
<path d="M61.7266 52.9058C58.8226 54.5156 56.2825 55.8817 56.2825 55.8817C73.762 44.0351 63.9397 31.9386 54.5727 22.5147C49.6591 17.5709 43.8795 10.8384 48.9436 3.32764C48.9436 3.32764 47.0425 9.92347 51.322 15.5982C55.6015 21.2729 66.0739 28.7016 67.0609 39.2629C67.6197 45.2446 65.3153 49.6787 61.7266 52.9045" fill="white"/>
</mask>
<g mask="url(#mask21_854_519)">
<path d="M73.7621 3.32886H43.8795V55.8817H73.7621V3.32886Z" fill="url(#paint21_linear_854_519)"/>
</g>
<mask id="mask22_854_519" style="mask-type:luminance" maskUnits="userSpaceOnUse" x="46" y="3" width="22" height="53">
<path d="M61.7266 52.906C58.8226 54.5158 56.2825 55.8819 56.2825 55.8819C73.762 44.0353 62.6431 31.8182 53.2761 22.3944C48.3625 17.4506 43.8794 10.8386 48.9435 3.3291C48.9435 3.3291 46.4911 10.1064 50.7706 15.7811C55.0501 21.4558 66.0727 28.703 67.0608 39.2643C67.6197 45.2461 65.3152 49.6802 61.7266 52.906Z" fill="white"/>
</mask>
<g mask="url(#mask22_854_519)">
<path d="M73.7619 3.3291H43.8794V55.8819H73.7619V3.3291Z" fill="url(#paint22_linear_854_519)"/>
</g>
<mask id="mask23_854_519" style="mask-type:luminance" maskUnits="userSpaceOnUse" x="56" y="13" width="18" height="43">
<path d="M59.1878 13.73C61.4762 15.0141 63.8547 16.2398 66.058 17.7651C66.8204 18.4413 67.6296 19.1051 68.4636 19.7652C70.2536 22.0015 70.5966 25.8986 72.0806 29.5247C76.2269 39.6596 70.4633 47.8478 67.6482 49.531C64.833 51.2141 58.3292 54.747 56.2826 55.8819C65.8988 50.2271 68.1009 41.4782 66.5909 35.269C64.7355 27.6402 57.1412 21.8598 59.1878 13.7288" fill="white"/>
</mask>
<g mask="url(#mask23_854_519)">
<path d="M76.2269 13.73H56.2826V55.8831H76.2269V13.73Z" fill="url(#paint23_linear_854_519)"/>
</g>
<mask id="mask24_854_519" style="mask-type:luminance" maskUnits="userSpaceOnUse" x="56" y="8" width="27" height="48">
<path d="M56.2826 55.8819C67.7012 50.2072 70.4559 41.5553 69.3617 35.9216C67.5963 26.8322 56.4467 19.1462 63.1268 8.87451C64.4913 18.9075 80.9863 18.7707 82.6456 34.1652C83.5338 42.4043 76.7956 55.5985 56.2826 55.8819Z" fill="white"/>
</mask>
<g mask="url(#mask24_854_519)">
<path d="M83.5338 8.87573H56.2826V55.8831H83.5338V8.87573Z" fill="url(#paint24_linear_854_519)"/>
</g>
<mask id="mask25_854_519" style="mask-type:luminance" maskUnits="userSpaceOnUse" x="57" y="8" width="16" height="48">
<path d="M57.5544 55.6072C68.92 49.2563 69.7095 41.0121 68.6165 35.3784C66.8512 26.2889 56.4466 19.1462 63.1268 8.87451C57.8838 20.0946 74.4924 28.294 72.4926 41.8574C71.6464 47.5967 67.975 53.4741 57.5544 55.6059" fill="white"/>
</mask>
<g mask="url(#mask25_854_519)">
<path d="M74.4924 8.87573H56.4467V55.6072H74.4924V8.87573Z" fill="url(#paint25_linear_854_519)"/>
</g>
<mask id="mask26_854_519" style="mask-type:luminance" maskUnits="userSpaceOnUse" x="56" y="8" width="16" height="48">
<path d="M56.2826 55.8819C67.6482 49.531 68.9644 40.7709 67.8702 35.1372C66.1049 26.0478 56.4467 19.1461 63.1268 8.87573C57.2683 20.0959 73.7473 28.0541 71.7476 41.6175C70.9013 47.3568 67.2324 53.7401 56.2838 55.8831" fill="white"/>
</mask>
<g mask="url(#mask26_854_519)">
<path d="M73.7473 8.87573H56.2826V55.8831H73.7473V8.87573Z" fill="url(#paint26_linear_854_519)"/>
</g>
<mask id="mask27_854_519" style="mask-type:luminance" maskUnits="userSpaceOnUse" x="62" y="8" width="21" height="40">
<path d="M63.1268 8.87576C60.6545 19.0442 78.16 19.7379 75.2461 37.8161C75.2461 37.8161 78.7348 31.2501 75.3695 23.3341C75.3695 23.3341 84.9524 32.5243 75.1067 47.3643C75.1067 47.3643 83.8434 40.1345 82.2223 31.6827C81.5426 28.1399 79.348 24.8532 76.3033 22.2203C70.7162 17.3872 63.6437 14.3528 63.1255 8.87451" fill="white"/>
</mask>
<g mask="url(#mask27_854_519)">
<path d="M84.9536 8.87573H60.6558V47.3655H84.9536V8.87573Z" fill="url(#paint27_linear_854_519)"/>
</g>
<path d="M35.5548 33.4229L23.1826 33.5012L35.5548 33.5795V33.4229Z" fill="currentColor"/>
<path d="M38.2775 31.5273L25.4069 31.4141L38.2775 31.301V31.5273Z" fill="currentColor"/>
<path d="M47.0067 30.3887C43.6833 30.3887 40.6362 31.4913 38.2651 33.3261C39.9774 32.4522 41.9426 31.9537 44.0337 31.9537C50.6657 31.9537 56.0432 36.9609 56.0432 43.1365C56.0432 49.3122 50.6657 54.3194 44.0337 54.3194C41.9562 54.3194 40.0021 53.8284 38.2972 52.9632C40.6633 54.783 43.6981 55.877 47.0067 55.877C54.5665 55.877 60.694 50.1712 60.694 43.1328C60.694 36.0945 54.5665 30.3887 47.0067 30.3887Z" fill="currentColor"/>
<path d="M58.8769 63.5467H55.1451L54.0558 66.7998H51.0543L53.1935 60.3619C52.927 60.4489 52.6901 60.5533 52.4829 60.6751C52.2744 60.797 52.0955 60.9374 51.945 61.0953C51.9277 61.1189 51.9055 61.1301 51.8784 61.1301C51.834 61.1537 51.7846 61.1562 51.7316 61.1363C51.6785 61.1164 51.665 61.0829 51.6921 61.0356C51.9845 60.5384 52.2744 60.0971 52.5618 59.7105C52.8493 59.3239 53.1836 58.9982 53.5648 58.7347C53.946 58.4699 54.4 58.271 54.9267 58.1368C55.4535 58.0025 56.1024 57.9391 56.8722 57.9478H56.8858V57.9677H60.8309L60.0476 60.0648H56.2615L55.7039 61.8747C55.7927 61.8685 55.8939 61.8635 56.0099 61.8598C56.1246 61.8561 56.3059 61.8548 56.5539 61.8548C56.8105 61.8548 57.1646 61.8548 57.6161 61.8548C58.0676 61.8548 58.6782 61.8548 59.4493 61.8548L58.8781 63.5454L58.8769 63.5467Z" fill="#E30613"/>
<path d="M62.6629 57.9875H65.6249L62.6357 66.7998H59.6343L62.6629 57.9875Z" fill="#E30613"/>
<path d="M69.876 64.2875H68.0428L67.1928 66.7998H64.3234L67.3125 57.9875H72.3198C72.6566 57.9875 72.9934 58.0273 73.329 58.1056C73.6657 58.184 73.9668 58.307 74.232 58.4724C74.4972 58.6377 74.7144 58.8465 74.8834 59.0989C75.0511 59.3512 75.1363 59.6471 75.1363 59.9864C75.1363 60.4513 75.0635 60.9088 74.9167 61.3588C74.7711 61.8076 74.5515 62.2302 74.2591 62.6243C74.0556 62.9077 73.8138 63.1787 73.535 63.4348C73.2562 63.6908 72.9478 63.8984 72.6122 64.0551L73.6213 66.7986H70.8321L69.876 64.2863V64.2875ZM70.1153 62.4776C70.3633 62.4776 70.5693 62.4614 70.7334 62.4303C70.8975 62.3993 71.0344 62.3558 71.1454 62.2998C71.2564 62.2451 71.349 62.1792 71.4242 62.1047C71.4995 62.0301 71.5772 61.953 71.6561 61.8747C71.8597 61.677 72.0164 61.457 72.1274 61.2121C72.2384 60.9672 72.2939 60.7074 72.2939 60.4315C72.2939 60.337 72.2742 60.2388 72.2335 60.1356C72.194 60.0337 72.1385 59.9404 72.0682 59.8572C71.9979 59.7739 71.9115 59.708 71.8091 59.6558C71.7067 59.6048 71.5945 59.5787 71.4711 59.5787H69.6379L68.6547 62.4763H70.1153V62.4776Z" fill="#E30613"/>
<path d="M82.8935 63.1018H79.1482C79.1038 63.2833 79.0507 63.4648 78.989 63.6462C78.9273 63.8277 78.8829 64.0092 78.8558 64.1907C78.8385 64.3014 78.878 64.407 78.9755 64.5102C79.0729 64.6134 79.1839 64.6718 79.3073 64.688C80.0598 64.7911 80.8173 64.8322 81.5785 64.8123C82.3396 64.7924 83.0884 64.719 83.8237 64.5935L83.1193 66.7813C81.2774 67.0337 79.427 67.0685 77.5666 66.8882C77.1509 66.8484 76.8116 66.7266 76.5501 66.5215C76.2886 66.3164 76.0912 66.0678 75.9592 65.7769C75.826 65.4848 75.7495 65.1703 75.7273 64.8309C75.7051 64.4916 75.7248 64.1721 75.7877 63.8725C75.9111 63.2733 76.0727 62.6829 76.2725 62.1023C76.4712 61.5218 76.7093 60.955 76.9831 60.403C76.8585 60.4428 76.729 60.4739 76.5908 60.4975C76.4539 60.5211 76.312 60.5534 76.1664 60.592C76.0209 60.6318 75.8691 60.6889 75.7149 60.7635C75.5595 60.8381 75.4028 60.9512 75.2437 61.1016C75.2165 61.1253 75.1956 61.1377 75.1771 61.1377C75.1327 61.1613 75.0833 61.1638 75.0303 61.1439C74.9772 61.124 74.9636 61.0905 74.9908 61.0432C75.256 60.5858 75.5595 60.1668 75.9012 59.7877C76.2417 59.4086 76.6254 59.0829 77.0497 58.8106C77.4741 58.5384 77.9466 58.3271 78.4647 58.1767C78.9829 58.0262 79.5565 57.9517 80.1844 57.9517H85.8962L85.1782 60.0686H80.9542C80.7679 60.0686 80.615 60.1208 80.4953 60.2228C80.3756 60.326 80.2745 60.449 80.1894 60.5907C80.1055 60.7337 80.0327 60.8816 79.9698 61.037C79.9081 61.1912 79.8365 61.3204 79.7576 61.4236C79.8378 61.4174 79.9328 61.4124 80.0438 61.4087C80.1548 61.405 80.3337 61.4037 80.5817 61.4037C80.8383 61.4037 81.1948 61.405 81.6512 61.4087C82.1077 61.4124 82.7159 61.4137 83.4783 61.4137L82.8935 63.1043V63.1018Z" fill="#E30613"/>
<path d="M8.24814 57.9925C8.46896 58 8.68732 58.0099 8.90444 58.0224C9.12156 58.0336 9.32388 58.0522 9.51386 58.0758C9.70384 58.0994 9.87162 58.1293 10.0184 58.1641C10.164 58.2001 10.2775 58.2449 10.3564 58.2996C10.6747 58.5122 10.898 58.7931 11.0263 59.1436C11.1546 59.4942 11.1435 59.8808 10.993 60.3059C10.9128 60.5347 10.7981 60.7559 10.6488 60.9722C10.4983 61.1885 10.3244 61.3899 10.1245 61.5739C9.9259 61.7591 9.70631 61.9244 9.46822 62.0699C9.22889 62.2153 8.98586 62.3272 8.73913 62.4068C9.64956 62.7921 9.92343 63.477 9.56074 64.4616C9.38433 64.9886 9.09689 65.4374 8.69842 65.8078C8.30119 66.1783 7.82747 66.4418 7.27973 66.5984C7.05027 66.6618 6.76284 66.7103 6.41742 66.7464C6.07323 66.7824 5.66119 66.7998 5.18377 66.7998H0L2.40067 59.8547C2.06512 59.9417 1.76905 60.0511 1.51245 60.1854C1.25585 60.3196 1.04366 60.4762 0.875887 60.6577C0.831476 60.7124 0.775962 60.7323 0.710579 60.7174C0.643962 60.7012 0.620523 60.6664 0.637794 60.6105C0.928934 60.1145 1.2102 59.6956 1.48037 59.3525C1.75054 59.0094 2.06142 58.7347 2.41547 58.5258C2.76953 58.317 3.1976 58.1678 3.70217 58.0771C4.20549 57.9863 4.84205 57.9453 5.61185 57.9528L8.26418 57.9664L8.25061 57.9925H8.24814ZM4.91977 65.2298C5.07891 65.2298 5.21831 65.2261 5.33798 65.2186C5.45764 65.2112 5.56127 65.1987 5.65009 65.1826C5.73891 65.1664 5.8228 65.1453 5.90175 65.1179C5.98071 65.0906 6.06089 65.057 6.14108 65.0172C6.32613 64.9153 6.4902 64.7873 6.63207 64.6331C6.77394 64.4802 6.8714 64.3199 6.92321 64.1545C7.05521 63.8003 6.99353 63.5404 6.73693 63.3751C6.6222 63.3043 6.49143 63.2545 6.34586 63.2272C6.20029 63.1998 5.97207 63.1862 5.66243 63.1862H4.15121L3.4616 65.2298H4.91977ZM6.16575 61.6161C6.48403 61.6161 6.72213 61.6025 6.88127 61.5751C7.04041 61.5478 7.19955 61.4906 7.35869 61.4036C7.54373 61.3016 7.70781 61.1736 7.84968 61.0195C7.99154 60.8653 8.0927 60.7062 8.15439 60.5409C8.27775 60.1866 8.21113 59.9255 7.95577 59.7602C7.86695 59.6894 7.77936 59.6459 7.69054 59.6309V59.6421H5.37005L4.69401 61.6174H6.16575V61.6161Z" fill="currentColor"/>
<path d="M14.3226 64.453C14.4373 64.5786 14.557 64.6531 14.6804 64.6768C15.4317 64.7787 16.1743 64.806 16.9083 64.7601C17.6423 64.7141 18.3764 64.6221 19.1091 64.4878L18.406 66.6719C17.4252 66.8211 16.4827 66.9081 15.5809 66.9317C14.6791 66.9553 13.7736 66.9081 12.862 66.79C12.0835 66.703 11.5506 66.4022 11.2644 65.8863C10.977 65.3704 10.9659 64.6643 11.2311 63.7668C11.2397 63.7196 11.2533 63.6649 11.2706 63.6015C11.2878 63.5381 11.3187 63.4386 11.3631 63.3007C11.4075 63.1627 11.4667 62.9725 11.542 62.7276C11.6172 62.4827 11.7233 62.1545 11.8603 61.7418C11.9972 61.3291 12.1724 60.817 12.3846 60.2066C12.5967 59.5963 12.8533 58.8591 13.1543 57.9927H16.1114L14.441 62.9166C14.3966 63.1217 14.346 63.3181 14.2881 63.507C14.2301 63.696 14.1931 63.8924 14.1758 64.0975C14.1585 64.2081 14.2066 64.3262 14.3214 64.4518L14.3226 64.453Z" fill="currentColor"/>
<path d="M29.4668 62.5635C29.2016 63.4336 28.8611 64.2938 28.4454 65.1454C28.2245 65.5779 27.8976 65.9335 27.4634 66.2082C27.0304 66.4842 26.5579 66.6607 26.0447 66.7402C25.629 66.8036 25.2157 66.8509 24.8049 66.882C24.3941 66.913 23.9808 66.9292 23.5651 66.9292C23.2641 66.9292 22.9507 66.923 22.6238 66.9118C22.2969 66.8994 21.9737 66.8683 21.6554 66.8173C21.3371 66.7663 21.0386 66.6918 20.761 66.5923C20.4822 66.4941 20.2416 66.3598 20.0381 66.1908C19.8345 66.0217 19.6828 65.8129 19.5804 65.5643C19.4792 65.3157 19.4459 65.0148 19.4805 64.6605C19.5249 64.2516 19.6026 63.8277 19.7124 63.3901C19.8234 62.9525 19.9517 62.5175 20.0973 62.0849C20.2429 61.6523 20.3995 61.2284 20.5685 60.8144C20.7363 60.4005 20.9041 60.0126 21.0731 59.6509C21.1619 59.4545 21.31 59.2531 21.5172 59.048C21.7245 58.8429 22.0119 58.6564 22.3795 58.4874C22.7459 58.3183 23.2085 58.1803 23.7649 58.0734C24.3213 57.9665 24.9936 57.9143 25.7807 57.9143C26.1693 57.9143 26.5924 57.9218 27.0476 57.9379C27.5029 57.9541 27.9359 58.0125 28.3467 58.1157C28.7575 58.2176 29.1226 58.3817 29.4409 58.6055C29.7592 58.8305 29.9763 59.1549 30.091 59.58V59.8995C29.9405 60.8057 29.7333 61.6933 29.4681 62.5635H29.4668ZM26.4037 62.4478C26.643 61.7903 26.8367 61.119 26.9872 60.4328C27.0316 60.2513 27.0094 60.1084 26.9206 60.0015C26.8318 59.8945 26.7109 59.8162 26.5554 59.7653C26.4 59.7143 26.231 59.6807 26.0447 59.6646C25.8584 59.6484 25.7005 59.641 25.5673 59.641C25.4168 59.641 25.2539 59.6484 25.0763 59.6646C24.8999 59.6807 24.7296 59.7143 24.5656 59.7653C24.4015 59.8162 24.2534 59.8871 24.1214 59.9778C23.9882 60.0686 23.892 60.1879 23.8303 60.3383C23.5651 60.9524 23.3171 61.5864 23.0876 62.2403C22.8582 62.8941 22.6633 63.5554 22.5041 64.2255C22.4597 64.3833 22.4573 64.5226 22.498 64.6444C22.5374 64.7662 22.6065 64.8694 22.704 64.9514C22.8014 65.0347 22.9248 65.0956 23.0753 65.1342C23.2258 65.1739 23.3887 65.1851 23.5663 65.1702C23.7341 65.1702 23.9265 65.164 24.1436 65.1528C24.3608 65.1416 24.568 65.1118 24.7666 65.0645C24.9653 65.0173 25.1404 64.9427 25.2909 64.8395C25.4414 64.7376 25.5389 64.5959 25.5821 64.4144C25.8917 63.7606 26.1656 63.1054 26.4037 62.4478Z" fill="currentColor"/>
<path d="M33.3725 64.4814C33.465 64.5684 33.5785 64.6231 33.7105 64.6467C34.4532 64.7412 35.1934 64.7872 35.9323 64.7822C36.6701 64.7785 37.4016 64.7138 38.127 64.587L37.4238 66.7712C35.5844 67.0235 33.7414 67.0583 31.8934 66.8781C31.4776 66.8383 31.1396 66.7165 30.8793 66.5126C30.619 66.3075 30.4216 66.0601 30.2896 65.7692C30.1564 65.4783 30.0775 65.1626 30.0503 64.8245C30.0244 64.4864 30.0417 64.1669 30.1034 63.8673C30.1737 63.5366 30.2625 63.1587 30.3686 62.7336C30.4747 62.3085 30.6092 61.8771 30.7732 61.4408C30.9373 61.0045 31.1285 60.5768 31.3506 60.1592C31.5714 59.7415 31.8342 59.3698 32.1401 59.0429C32.4448 58.7159 32.7915 58.4549 33.1813 58.2585C33.5699 58.0621 34.0128 57.9639 34.5075 57.9639H40.3685L39.653 60.0771H35.2637C35.1305 60.0771 35.0071 60.1107 34.8924 60.1778C34.7776 60.2449 34.6888 60.3295 34.6271 60.4314C34.2558 61.0057 33.9548 61.6098 33.7253 62.2438C33.4959 62.8778 33.3404 63.5254 33.2615 64.1868C33.2442 64.2974 33.2812 64.3956 33.3738 64.4814H33.3725Z" fill="currentColor"/>
<path d="M38.9104 66.7998L41.9341 57.9626H44.8516L43.8043 61.0107L47.4645 57.9626H50.2488L45.1033 62.0027L47.689 66.7985H44.8516L43.1011 63.0891L41.828 66.7985H38.9104V66.7998Z" fill="currentColor"/>
<path d="M51.8402 57.9626C51.5355 58.9546 50.9643 60.2189 50.593 60.7621L49.8503 60.8454C50.1427 60.148 50.4869 58.9198 50.6325 58.0696L51.839 57.9626H51.8402Z" fill="currentColor"/>
<path d="M89.0001 57.9863C89.0001 58.6626 88.4042 59.1933 87.6283 59.1933C86.8609 59.1933 86.2478 58.6626 86.2478 57.9863C86.2478 57.325 86.8597 56.7942 87.6283 56.7942C88.4042 56.7942 89.0001 57.325 89.0001 57.9863ZM86.5908 57.9863C86.5908 58.5171 87.0312 58.9385 87.6357 58.9385C88.2241 58.9385 88.6559 58.5171 88.6559 57.9925C88.6559 57.4617 88.2229 57.0329 87.627 57.0329C87.0312 57.0329 86.5895 57.4617 86.5895 57.9851L86.5908 57.9863ZM87.4161 58.6116H87.1052V57.4195C87.2273 57.3971 87.3988 57.3834 87.6196 57.3834C87.8725 57.3834 87.9872 57.4195 88.0847 57.4704C88.1587 57.5214 88.2155 57.6159 88.2155 57.7327C88.2155 57.8632 88.1007 57.9652 87.9379 58.0087V58.0236C88.0687 58.0671 88.1427 58.1541 88.1834 58.3145C88.2241 58.496 88.2488 58.5693 88.2808 58.6128H87.9465C87.9058 58.5693 87.8811 58.4599 87.8404 58.3219C87.8158 58.1914 87.7343 58.133 87.5629 58.133H87.4161V58.6128V58.6116ZM87.4235 57.9353H87.5703C87.7417 57.9353 87.8811 57.8844 87.8811 57.7613C87.8811 57.6519 87.7911 57.5798 87.5949 57.5798C87.5135 57.5798 87.4555 57.5873 87.4235 57.5947V57.9366V57.9353Z" fill="currentColor"/>
<defs>
<linearGradient id="paint0_linear_854_519" x1="45.5326" y1="52.0991" x2="69.2213" y2="11.6705" gradientUnits="userSpaceOnUse">
<stop stop-color="#E40842"/>
<stop offset="1" stop-color="#FCC904"/>
</linearGradient>
<linearGradient id="paint1_linear_854_519" x1="29.1374" y1="-16.2571" x2="59.5457" y2="50.1057" gradientUnits="userSpaceOnUse">
<stop stop-color="#9A1918"/>
<stop offset="0.15" stop-color="#E40842"/>
<stop offset="0.46" stop-color="#FCED66"/>
<stop offset="0.76" stop-color="#E40842"/>
<stop offset="1" stop-color="#9A1918"/>
</linearGradient>
<linearGradient id="paint2_linear_854_519" x1="43.249" y1="2.11325" x2="35.2465" y2="24.1665" gradientUnits="userSpaceOnUse">
<stop stop-color="#FCED66"/>
<stop offset="1" stop-color="#EA5B3A"/>
</linearGradient>
<linearGradient id="paint3_linear_854_519" x1="63.5081" y1="34.6051" x2="15.7441" y2="13.65" gradientUnits="userSpaceOnUse">
<stop stop-color="#8C1822"/>
<stop offset="1" stop-color="#E40842"/>
</linearGradient>
<linearGradient id="paint4_linear_854_519" x1="58.0035" y1="31.9187" x2="20.7306" y2="22.0067" gradientUnits="userSpaceOnUse">
<stop stop-color="#441313"/>
<stop offset="0.39" stop-color="#8C1822"/>
<stop offset="1" stop-color="#F8D82F"/>
</linearGradient>
<linearGradient id="paint5_linear_854_519" x1="61.0011" y1="38.7795" x2="56.5716" y2="1.96841" gradientUnits="userSpaceOnUse">
<stop stop-color="#E40842"/>
<stop offset="1" stop-color="#FCC904"/>
</linearGradient>
<linearGradient id="paint6_linear_854_519" x1="53.6734" y1="8.0056" x2="51.8375" y2="23.6205" gradientUnits="userSpaceOnUse">
<stop stop-color="#FCED66"/>
<stop offset="1" stop-color="#EA5B3A"/>
</linearGradient>
<linearGradient id="paint7_linear_854_519" x1="35.4821" y1="-7.7943" x2="69.6198" y2="46.4065" gradientUnits="userSpaceOnUse">
<stop stop-color="#9A1918"/>
<stop offset="0.15" stop-color="#E40842"/>
<stop offset="0.46" stop-color="#FCED66"/>
<stop offset="0.76" stop-color="#E40842"/>
<stop offset="1" stop-color="#9A1918"/>
</linearGradient>
<linearGradient id="paint8_linear_854_519" x1="74.4293" y1="32.6846" x2="36.9529" y2="25.4685" gradientUnits="userSpaceOnUse">
<stop stop-color="#8C1822"/>
<stop offset="1" stop-color="#E40842"/>
</linearGradient>
<linearGradient id="paint9_linear_854_519" x1="76.8573" y1="46.4754" x2="27.6739" y2="-6.14464" gradientUnits="userSpaceOnUse">
<stop stop-color="#441313"/>
<stop offset="0.39" stop-color="#8C1822"/>
<stop offset="1" stop-color="#F8D82F"/>
</linearGradient>
<linearGradient id="paint10_linear_854_519" x1="59.8491" y1="47.6241" x2="77.5717" y2="20.7991" gradientUnits="userSpaceOnUse">
<stop stop-color="#E40842"/>
<stop offset="1" stop-color="#FCC904"/>
</linearGradient>
<linearGradient id="paint11_linear_854_519" x1="79.4998" y1="4.62064" x2="45.72" y2="69.4712" gradientUnits="userSpaceOnUse">
<stop stop-color="#9A1918"/>
<stop offset="0.15" stop-color="#E40842"/>
<stop offset="0.46" stop-color="#FCED66"/>
<stop offset="0.76" stop-color="#E40842"/>
<stop offset="1" stop-color="#9A1918"/>
</linearGradient>
<linearGradient id="paint12_linear_854_519" x1="77.3434" y1="33.3671" x2="48.0638" y2="31.0824" gradientUnits="userSpaceOnUse">
<stop stop-color="#8C1822"/>
<stop offset="1" stop-color="#E40842"/>
</linearGradient>
<linearGradient id="paint13_linear_854_519" x1="77.5073" y1="20.2923" x2="64.1057" y2="41.6276" gradientUnits="userSpaceOnUse">
<stop stop-color="#FCED66"/>
<stop offset="1" stop-color="#EA5B3A"/>
</linearGradient>
<linearGradient id="paint14_linear_854_519" x1="45.672" y1="52.0991" x2="69.3607" y2="11.6705" gradientUnits="userSpaceOnUse">
<stop stop-color="#E40842"/>
<stop offset="1" stop-color="#FCC904"/>
</linearGradient>
<linearGradient id="paint15_linear_854_519" x1="29.2768" y1="-16.2571" x2="59.6852" y2="50.1057" gradientUnits="userSpaceOnUse">
<stop stop-color="#9A1918"/>
<stop offset="0.15" stop-color="#E40842"/>
<stop offset="0.46" stop-color="#FCED66"/>
<stop offset="0.76" stop-color="#E40842"/>
<stop offset="1" stop-color="#9A1918"/>
</linearGradient>
<linearGradient id="paint16_linear_854_519" x1="43.3884" y1="-2.81944e-07" x2="35.3837" y2="24.1692" gradientUnits="userSpaceOnUse">
<stop stop-color="#FCED66"/>
<stop offset="1" stop-color="#EA5B3A"/>
</linearGradient>
<linearGradient id="paint17_linear_854_519" x1="63.6475" y1="34.6051" x2="15.8835" y2="13.6501" gradientUnits="userSpaceOnUse">
<stop stop-color="#8C1822"/>
<stop offset="1" stop-color="#E40842"/>
</linearGradient>
<linearGradient id="paint18_linear_854_519" x1="58.1429" y1="31.9187" x2="20.87" y2="22.0067" gradientUnits="userSpaceOnUse">
<stop stop-color="#441313"/>
<stop offset="0.39" stop-color="#8C1822"/>
<stop offset="1" stop-color="#F8D82F"/>
</linearGradient>
<linearGradient id="paint19_linear_854_519" x1="61.1407" y1="38.7795" x2="56.7112" y2="1.96841" gradientUnits="userSpaceOnUse">
<stop stop-color="#E40842"/>
<stop offset="1" stop-color="#FCC904"/>
</linearGradient>
<linearGradient id="paint20_linear_854_519" x1="53.8128" y1="8.0056" x2="51.9769" y2="23.6205" gradientUnits="userSpaceOnUse">
<stop stop-color="#FCED66"/>
<stop offset="1" stop-color="#EA5B3A"/>
</linearGradient>
<linearGradient id="paint21_linear_854_519" x1="35.6215" y1="-7.7943" x2="69.7592" y2="46.4065" gradientUnits="userSpaceOnUse">
<stop stop-color="#9A1918"/>
<stop offset="0.15" stop-color="#E40842"/>
<stop offset="0.46" stop-color="#FCED66"/>
<stop offset="0.76" stop-color="#E40842"/>
<stop offset="1" stop-color="#9A1918"/>
</linearGradient>
<linearGradient id="paint22_linear_854_519" x1="74.5687" y1="32.6846" x2="37.0923" y2="25.4685" gradientUnits="userSpaceOnUse">
<stop stop-color="#8C1822"/>
<stop offset="1" stop-color="#E40842"/>
</linearGradient>
<linearGradient id="paint23_linear_854_519" x1="76.9967" y1="46.4754" x2="27.8133" y2="-6.14463" gradientUnits="userSpaceOnUse">
<stop stop-color="#441313"/>
<stop offset="0.39" stop-color="#8C1822"/>
<stop offset="1" stop-color="#F8D82F"/>
</linearGradient>
<linearGradient id="paint24_linear_854_519" x1="59.9897" y1="47.6241" x2="77.7111" y2="20.7991" gradientUnits="userSpaceOnUse">
<stop stop-color="#E40842"/>
<stop offset="1" stop-color="#FCC904"/>
</linearGradient>
<linearGradient id="paint25_linear_854_519" x1="79.6392" y1="4.62064" x2="45.8594" y2="69.4712" gradientUnits="userSpaceOnUse">
<stop stop-color="#9A1918"/>
<stop offset="0.15" stop-color="#E40842"/>
<stop offset="0.46" stop-color="#FCED66"/>
<stop offset="0.76" stop-color="#E40842"/>
<stop offset="1" stop-color="#9A1918"/>
</linearGradient>
<linearGradient id="paint26_linear_854_519" x1="77.4828" y1="33.3671" x2="48.2032" y2="31.0824" gradientUnits="userSpaceOnUse">
<stop stop-color="#8C1822"/>
<stop offset="1" stop-color="#E40842"/>
</linearGradient>
<linearGradient id="paint27_linear_854_519" x1="77.6467" y1="20.2923" x2="64.2451" y2="41.6276" gradientUnits="userSpaceOnUse">
<stop stop-color="#FCED66"/>
<stop offset="1" stop-color="#EA5B3A"/>
</linearGradient>
</defs>
</svg>
