<svg width="89" height="67" viewBox="0 0 89 67" fill="none" xmlns="http://www.w3.org/2000/svg"><path d="M49.484 46.495a7.1 7.1 0 0 0 1.744-2.103c1.883-3.467.39-7.7-3.333-9.452-3.724-1.753-8.27-.363-10.152 3.104a6.7 6.7 0 0 0-.785 2.554q.167-.486.423-.955c1.77-3.26 6.043-4.567 9.544-2.918 3.501 1.648 4.905 5.627 3.135 8.888a6.6 6.6 0 0 1-.576.882" fill="#fff"/><path d="M51.771 49.982a9.9 9.9 0 0 0 2.138-3.21 9.6 9.6 0 0 1-.976 1.154c-3.78 3.819-10.169 4.061-14.27.542-4.102-3.52-4.363-9.469-.583-13.287q.545-.55 1.156-1a10.7 10.7 0 0 0-3.262 2.246c-4.02 4.062-3.743 10.389.62 14.132s11.157 3.486 15.177-.577" fill="currentColor"/><mask id="a" style="mask-type:luminance" maskUnits="userSpaceOnUse" x="35" y="0" width="47" height="56"><path d="M39.092 0c-6.235 8.39-2.495 15.496 1.61 19.976 3.554 3.88 9.343 6.574 15.058 10.953 6.89 5.282 11.67 15.858.383 24.953 23.21-1.795 29.948-16.786 23.356-26.427C70.852 16.809 46.326 17.221 39.092 0" fill="#fff"/></mask><g mask="url(#a)"><path d="M86.091 0H32.857v55.882H86.09z" fill="url(#b)"/></g><mask id="c" style="mask-type:luminance" maskUnits="userSpaceOnUse" x="36" y="0" width="30" height="56"><path d="M39.092 0c-6.235 8.39-1.684 15.135 2.42 19.615 3.554 3.88 8.533 6.935 14.247 11.316 6.89 5.281 11.67 15.858.384 24.952q1.065-.083 2.082-.201c6.687-4.795 8.746-10.166 6.243-18.17C60.314 24.231 30.736 19.91 39.092 0" fill="#fff"/></mask><g mask="url(#c)"><path d="M67.43 0H30.736v55.882H67.43z" fill="url(#d)"/></g><mask id="e" style="mask-type:luminance" maskUnits="userSpaceOnUse" x="38" y="0" width="8" height="15"><path d="M45.747 8.897C42.96 6.532 40.633 3.667 39.092 0c0 0-2.044 7.587 4.57 14.589 0 0-2.757-4.527-3.178-8.814 0 0 .852 2.216 5.09 5.494z" fill="#fff"/></mask><g mask="url(#e)"><path d="M45.747 0h-8.7v14.589h8.7z" fill="url(#f)"/></g><mask id="g" style="mask-type:luminance" maskUnits="userSpaceOnUse" x="35" y="0" width="31" height="56"><path d="M39.092 0c-6.235 8.39-2.495 15.496 1.61 19.976 3.554 3.88 9.343 6.574 15.058 10.953 6.89 5.282 11.67 15.858.383 24.953q1.065-.083 2.083-.202c6.686-4.794 8.745-10.166 6.242-18.17C60.314 24.232 29.666 20.545 39.092 0" fill="#fff"/></mask><g mask="url(#g)"><path d="M67.429 0H29.666v55.882h37.763z" fill="url(#h)"/></g><mask id="i" style="mask-type:luminance" maskUnits="userSpaceOnUse" x="44" y="8" width="29" height="48"><path d="M64.288 18.879C57.747 15.954 50.692 13.23 45.402 8.6c-1.74 6.018 2.225 11.114 6.442 15.029 9.445 8.769 20.697 20.173 4.3 32.252 0 0 6.97-4.104 10.718-6.548 3.75-2.445 7.88-9.849 3.45-19.493-1.787-3.888-2.185-8.16-4.664-10.013q-.667-.498-1.36-.948" fill="#fff"/></mask><g mask="url(#i)"><path d="M74.742 8.6h-31.08v47.282h31.08z" fill="url(#j)"/></g><mask id="k" style="mask-type:luminance" maskUnits="userSpaceOnUse" x="46" y="3" width="28" height="53"><path d="M48.804 3.33C51.906 12.145 60.95 13.625 67.57 19c2.477 2.01 2.7 6.44 4.372 10.525 4.146 10.135-.449 17.626-4.432 20.006-3.984 2.382-11.366 6.35-11.366 6.35 17.48-11.846 6.36-24.063-3.006-33.487-4.914-4.943-9.397-11.555-4.333-19.065" fill="#fff"/></mask><g mask="url(#k)"><path d="M76.087 3.33H43.74v52.552h32.347z" fill="url(#l)"/></g><mask id="m" style="mask-type:luminance" maskUnits="userSpaceOnUse" x="48" y="3" width="12" height="17"><path d="M48.804 3.33c1.984 5.639 6.4 8.277 11.055 10.851l-.326 2.605c-4.744-2.664-7.574-6.21-7.574-6.21 1.765 4.316 4.927 8.828 4.927 8.828-10.179-9.116-8.083-16.075-8.083-16.075" fill="#fff"/></mask><g mask="url(#m)"><path d="M59.86 3.33H46.708v16.074H59.86z" fill="url(#n)"/></g><mask id="o" style="mask-type:luminance" maskUnits="userSpaceOnUse" x="46" y="3" width="22" height="53"><path d="M61.587 52.906c-2.904 1.61-5.444 2.976-5.444 2.976 17.48-11.847 7.657-23.943-1.71-33.367C49.52 17.57 43.74 10.838 48.804 3.328c0 0-1.9 6.595 2.379 12.27 4.28 5.675 14.752 13.104 15.738 23.665.56 5.982-1.745 10.416-5.334 13.642" fill="#fff"/></mask><g mask="url(#o)"><path d="M73.623 3.329H43.74v52.553h29.883z" fill="url(#p)"/></g><mask id="q" style="mask-type:luminance" maskUnits="userSpaceOnUse" x="46" y="3" width="22" height="53"><path d="M61.587 52.906c-2.904 1.61-5.444 2.976-5.444 2.976 17.48-11.847 6.36-24.064-3.006-33.488-4.914-4.943-9.397-11.555-4.333-19.065 0 0-2.452 6.777 1.827 12.452 4.28 5.675 15.302 12.922 16.29 23.483.56 5.982-1.745 10.416-5.334 13.642" fill="#fff"/></mask><g mask="url(#q)"><path d="M73.623 3.33H43.74v52.552h29.883z" fill="url(#r)"/></g><mask id="s" style="mask-type:luminance" maskUnits="userSpaceOnUse" x="56" y="13" width="18" height="43"><path d="M59.048 13.73c2.289 1.284 4.667 2.51 6.87 4.035.763.676 1.572 1.34 2.406 2 1.79 2.236 2.133 6.134 3.617 9.76 4.147 10.135-1.617 18.323-4.432 20.006s-9.32 5.216-11.366 6.35c9.616-5.654 11.819-14.403 10.308-20.612-1.855-7.629-9.45-13.41-7.403-21.54" fill="#fff"/></mask><g mask="url(#s)"><path d="M76.088 13.73H56.143v42.153h19.945z" fill="url(#t)"/></g><mask id="u" style="mask-type:luminance" maskUnits="userSpaceOnUse" x="56" y="8" width="27" height="48"><path d="M56.143 55.882c11.419-5.675 14.174-14.327 13.08-19.96-1.766-9.09-12.916-16.776-6.236-27.047 1.365 10.032 17.86 9.896 19.52 25.29.887 8.24-5.85 21.434-26.364 21.717" fill="#fff"/></mask><g mask="url(#u)"><path d="M83.394 8.876h-27.25v47.007h27.25z" fill="url(#v)"/></g><mask id="w" style="mask-type:luminance" maskUnits="userSpaceOnUse" x="57" y="8" width="16" height="48"><path d="M57.415 55.607c11.366-6.35 12.155-14.595 11.062-20.229-1.765-9.09-12.17-16.232-5.49-26.503-5.243 11.22 11.366 19.419 9.366 32.982-.846 5.74-4.517 11.617-14.938 13.749" fill="#fff"/></mask><g mask="url(#w)"><path d="M74.353 8.876H56.307v46.731h18.046z" fill="url(#x)"/></g><mask id="y" style="mask-type:luminance" maskUnits="userSpaceOnUse" x="56" y="8" width="16" height="48"><path d="M56.143 55.882C67.51 49.53 68.825 40.77 67.731 35.137c-1.765-9.09-11.424-15.99-4.744-26.261-5.858 11.22 10.62 19.178 8.621 32.742-.846 5.739-4.515 12.122-15.464 14.265" fill="#fff"/></mask><g mask="url(#y)"><path d="M73.608 8.876H56.143v47.007h17.465z" fill="url(#z)"/></g><mask id="A" style="mask-type:luminance" maskUnits="userSpaceOnUse" x="62" y="8" width="21" height="40"><path d="M62.987 8.876c-2.472 10.168 15.034 10.862 12.12 28.94 0 0 3.488-6.566.123-14.482 0 0 9.583 9.19-.263 24.03 0 0 8.737-7.23 7.116-15.681-.68-3.543-2.874-6.83-5.92-9.463-5.586-4.833-12.659-7.867-13.177-13.345" fill="#fff"/></mask><g mask="url(#A)"><path d="M84.813 8.876H60.515v38.49h24.298z" fill="url(#B)"/></g><path d="M46.867 30.389c-3.323 0-6.37 1.102-8.741 2.937a12.7 12.7 0 0 1 5.768-1.372c6.632 0 12.01 5.007 12.01 11.182S50.526 54.32 43.894 54.32c-2.077 0-4.031-.49-5.736-1.356 2.366 1.82 5.4 2.914 8.71 2.914 7.56 0 13.687-5.706 13.687-12.744 0-7.039-6.128-12.744-13.688-12.744" fill="currentColor"/><path d="M49.623 46.495a7.1 7.1 0 0 0 1.745-2.103c1.882-3.467.39-7.7-3.334-9.452-3.724-1.753-8.269-.363-10.151 3.104a6.7 6.7 0 0 0-.786 2.554q.168-.486.423-.955c1.77-3.26 6.044-4.567 9.545-2.918 3.5 1.648 4.905 5.627 3.135 8.888a6.6 6.6 0 0 1-.577.882" fill="#e30613"/><path d="m31.83 37.493-12.847-.118 12.847-.118zm2.068-2.01-12.885-.081 12.885-.082zM31.11 47.252l-18.83-.242 18.83-.242zm-.681-4.975-14.493-.15 14.493-.152zm.41-2.379-13.167-.135 13.167-.137zm-.385 4.822-16.37-.183 16.37-.181zm8.166 11.597-36.39-.3 36.39-.3zm-3.07-2.032-30.678-.301 30.678-.301zm-2.102-2.345-26.046-.265 26.046-.265zm-1.051-2.356-22.116-.248 22.116-.249zm19.513.398a9.9 9.9 0 0 0 2.138-3.21 9.6 9.6 0 0 1-.975 1.154c-3.78 3.819-10.17 4.061-14.271.542s-4.362-9.469-.583-13.287a10 10 0 0 1 1.157-1 10.7 10.7 0 0 0-3.262 2.246c-4.02 4.062-3.743 10.389.619 14.132s11.157 3.486 15.178-.577" fill="currentColor"/><mask id="C" style="mask-type:luminance" maskUnits="userSpaceOnUse" x="35" y="0" width="48" height="56"><path d="M39.231 0c-6.235 8.39-2.494 15.496 1.61 19.976 3.554 3.88 9.344 6.574 15.058 10.953 6.89 5.282 11.67 15.858.384 24.953 23.21-1.795 29.948-16.786 23.355-26.427C70.993 16.809 46.465 17.221 39.23 0" fill="#fff"/></mask><g mask="url(#C)"><path d="M86.23 0H32.997v55.882h53.235z" fill="url(#D)"/></g><mask id="E" style="mask-type:luminance" maskUnits="userSpaceOnUse" x="36" y="0" width="30" height="56"><path d="M39.231 0c-6.235 8.39-1.684 15.135 2.42 19.615 3.555 3.88 8.534 6.935 14.248 11.316 6.89 5.281 11.67 15.858.383 24.952q1.065-.083 2.083-.201c6.686-4.795 8.745-10.166 6.242-18.17C60.453 24.231 30.876 19.91 39.231 0" fill="#fff"/></mask><g mask="url(#E)"><path d="M67.57 0H30.875v55.882h36.693z" fill="url(#F)"/></g><mask id="G" style="mask-type:luminance" maskUnits="userSpaceOnUse" x="38" y="0" width="8" height="15"><path d="M45.887 8.897C43.099 6.532 40.772 3.667 39.23 0c0 0-2.044 7.587 4.57 14.589 0 0-2.757-4.527-3.177-8.814 0 0 .851 2.216 5.09 5.494z" fill="#fff"/></mask><g mask="url(#G)"><path d="M45.887 0h-8.7v14.589h8.7z" fill="url(#H)"/></g><mask id="I" style="mask-type:luminance" maskUnits="userSpaceOnUse" x="35" y="0" width="31" height="56"><path d="M39.231 0c-6.235 8.39-2.494 15.496 1.61 19.976 3.554 3.88 9.344 6.574 15.058 10.953 6.89 5.282 11.67 15.858.384 24.953q1.064-.083 2.082-.202c6.686-4.794 8.745-10.166 6.242-18.17C60.453 24.232 29.807 20.545 39.231 0" fill="#fff"/></mask><g mask="url(#I)"><path d="M67.57 0H29.805v55.882H67.57z" fill="url(#J)"/></g><mask id="K" style="mask-type:luminance" maskUnits="userSpaceOnUse" x="45" y="8" width="28" height="48"><path d="M64.427 18.879C57.887 15.954 50.831 13.23 45.541 8.6c-1.74 6.018 2.226 11.114 6.442 15.029 9.445 8.769 20.697 20.173 4.3 32.252 0 0 6.97-4.104 10.719-6.548 3.75-2.445 7.879-9.849 3.449-19.493-1.786-3.888-2.185-8.16-4.663-10.013q-.668-.498-1.361-.948" fill="#fff"/></mask><g mask="url(#K)"><path d="M74.88 8.6H43.803v47.282H74.88z" fill="url(#L)"/></g><mask id="M" style="mask-type:luminance" maskUnits="userSpaceOnUse" x="46" y="3" width="28" height="53"><path d="M48.945 3.33C52.046 12.145 61.09 13.625 67.71 19c2.477 2.01 2.7 6.44 4.372 10.525 4.146 10.135-.45 17.626-4.433 20.006-3.983 2.382-11.365 6.35-11.365 6.35 17.48-11.846 6.36-24.063-3.007-33.487-4.913-4.943-9.396-11.555-4.332-19.065" fill="#fff"/></mask><g mask="url(#M)"><path d="M76.227 3.33H43.879v52.552h32.348z" fill="url(#N)"/></g><mask id="O" style="mask-type:luminance" maskUnits="userSpaceOnUse" x="48" y="3" width="12" height="17"><path d="M48.945 3.33c1.983 5.639 6.399 8.277 11.054 10.851l-.325 2.605c-4.745-2.664-7.575-6.21-7.575-6.21 1.766 4.316 4.927 8.828 4.927 8.828-10.178-9.116-8.082-16.075-8.082-16.075" fill="#fff"/></mask><g mask="url(#O)"><path d="M60 3.33H46.848v16.074h13.151z" fill="url(#P)"/></g><mask id="Q" style="mask-type:luminance" maskUnits="userSpaceOnUse" x="46" y="3" width="22" height="53"><path d="M61.727 52.906c-2.904 1.61-5.444 2.976-5.444 2.976 17.479-11.847 7.657-23.943-1.71-33.367-4.914-4.944-10.693-11.677-5.63-19.187 0 0-1.9 6.595 2.379 12.27 4.28 5.675 14.752 13.104 15.739 23.665.559 5.982-1.746 10.416-5.334 13.642" fill="#fff"/></mask><g mask="url(#Q)"><path d="M73.762 3.329H43.88v52.553h29.882z" fill="url(#R)"/></g><mask id="S" style="mask-type:luminance" maskUnits="userSpaceOnUse" x="46" y="3" width="22" height="53"><path d="M61.727 52.906c-2.904 1.61-5.444 2.976-5.444 2.976 17.479-11.847 6.36-24.064-3.007-33.488-4.914-4.943-9.397-11.555-4.333-19.065 0 0-2.452 6.777 1.828 12.452s15.302 12.922 16.29 23.483c.559 5.982-1.746 10.416-5.334 13.642" fill="#fff"/></mask><g mask="url(#S)"><path d="M73.762 3.33H43.879v52.552h29.883z" fill="url(#T)"/></g><mask id="U" style="mask-type:luminance" maskUnits="userSpaceOnUse" x="56" y="13" width="18" height="43"><path d="M59.188 13.73c2.288 1.284 4.667 2.51 6.87 4.035.762.676 1.572 1.34 2.406 2 1.79 2.236 2.133 6.134 3.617 9.76 4.146 10.135-1.618 18.323-4.433 20.006s-9.319 5.216-11.365 6.35C65.899 50.228 68.1 41.479 66.59 35.27c-1.855-7.629-9.45-13.41-7.403-21.54" fill="#fff"/></mask><g mask="url(#U)"><path d="M76.227 13.73H56.283v42.153h19.944z" fill="url(#V)"/></g><mask id="W" style="mask-type:luminance" maskUnits="userSpaceOnUse" x="56" y="8" width="27" height="48"><path d="M56.283 55.882c11.418-5.675 14.173-14.327 13.079-19.96-1.766-9.09-12.915-16.776-6.235-27.047 1.364 10.032 17.86 9.896 19.519 25.29.888 8.24-5.85 21.434-26.363 21.717" fill="#fff"/></mask><g mask="url(#W)"><path d="M83.534 8.876H56.283v47.007h27.25z" fill="url(#X)"/></g><mask id="Y" style="mask-type:luminance" maskUnits="userSpaceOnUse" x="57" y="8" width="16" height="48"><path d="M57.554 55.607c11.366-6.35 12.156-14.595 11.063-20.229-1.766-9.09-12.17-16.232-5.49-26.503-5.243 11.22 11.365 19.419 9.366 32.982-.847 5.74-4.518 11.617-14.939 13.749" fill="#fff"/></mask><g mask="url(#Y)"><path d="M74.492 8.876H56.447v46.731h18.045z" fill="url(#Z)"/></g><mask id="aa" style="mask-type:luminance" maskUnits="userSpaceOnUse" x="56" y="8" width="16" height="48"><path d="M56.283 55.882C67.648 49.53 68.964 40.77 67.87 35.137c-1.765-9.09-11.423-15.99-4.743-26.261-5.859 11.22 10.62 19.178 8.62 32.742-.846 5.739-4.515 12.122-15.463 14.265" fill="#fff"/></mask><g mask="url(#aa)"><path d="M73.747 8.876H56.283v47.007h17.464z" fill="url(#ab)"/></g><mask id="ac" style="mask-type:luminance" maskUnits="userSpaceOnUse" x="62" y="8" width="21" height="40"><path d="M63.127 8.876c-2.473 10.168 15.033 10.862 12.12 28.94 0 0 3.488-6.566.123-14.482 0 0 9.582 9.19-.263 24.03 0 0 8.736-7.23 7.115-15.681-.68-3.543-2.874-6.83-5.919-9.463-5.587-4.833-12.66-7.867-13.177-13.345" fill="#fff"/></mask><g mask="url(#ac)"><path d="M84.954 8.876H60.656v38.49h24.298z" fill="url(#ad)"/></g><path d="m35.555 33.423-12.372.078 12.372.079zm2.723-1.896-12.871-.113 12.87-.113zm8.729-1.138c-3.324 0-6.37 1.102-8.742 2.937a12.7 12.7 0 0 1 5.769-1.372c6.632 0 12.01 5.007 12.01 11.182S50.665 54.32 44.033 54.32c-2.078 0-4.032-.49-5.737-1.356 2.366 1.82 5.401 2.914 8.71 2.914 7.56 0 13.687-5.706 13.687-12.744 0-7.039-6.128-12.744-13.687-12.744" fill="currentColor"/><path d="M58.877 63.547h-3.732l-1.09 3.253h-3l2.139-6.438a3.6 3.6 0 0 0-.711.313 2.4 2.4 0 0 0-.538.42.08.08 0 0 1-.067.035.17.17 0 0 1-.146.006q-.08-.03-.04-.1a15 15 0 0 1 .87-1.325 4.3 4.3 0 0 1 1.003-.976 4.2 4.2 0 0 1 1.362-.598q.79-.202 1.945-.19h.014v.02h3.945l-.783 2.098H56.26l-.557 1.81q.133-.01.306-.015.172-.006.544-.005h2.895l-.57 1.69zm3.786-5.559h2.962l-2.99 8.812h-3zm7.213 6.299h-1.833l-.85 2.513h-2.87l2.99-8.812h5.007q.505 0 1.009.118.505.118.903.366t.651.627.253.887a4.4 4.4 0 0 1-.877 2.638 5.3 5.3 0 0 1-.724.81 3.6 3.6 0 0 1-.923.621l1.01 2.744h-2.79zm.24-1.81q.37 0 .617-.047a1.6 1.6 0 0 0 .412-.13q.166-.083.28-.195l.231-.23q.305-.296.471-.663.167-.367.167-.78a.8.8 0 0 0-.06-.296 1 1 0 0 0-.166-.279.8.8 0 0 0-.259-.201.75.75 0 0 0-.338-.077h-1.833l-.983 2.897z" fill="#e30613"/><path d="M82.894 63.102h-3.746a7 7 0 0 1-.159.544 3 3 0 0 0-.133.545q-.026.165.12.32a.55.55 0 0 0 .331.177q1.13.154 2.272.124t2.245-.218l-.705 2.187a23.8 23.8 0 0 1-5.552.107q-.624-.059-1.017-.367a2 2 0 0 1-.59-.744 2.7 2.7 0 0 1-.233-.946 3.5 3.5 0 0 1 .06-.959 14.3 14.3 0 0 1 1.196-3.469 3 3 0 0 1-.392.095 5 5 0 0 0-.425.094q-.219.06-.451.172a1.9 1.9 0 0 0-.471.338q-.04.035-.067.036a.17.17 0 0 1-.147.006q-.08-.03-.04-.1a7.5 7.5 0 0 1 .911-1.256q.51-.57 1.149-.977a5.4 5.4 0 0 1 1.415-.634 6.2 6.2 0 0 1 1.72-.225h5.711l-.718 2.117h-4.224a.68.68 0 0 0-.459.154 1.5 1.5 0 0 0-.306.368q-.124.213-.22.446a1.6 1.6 0 0 1-.211.387q.12-.01.286-.015.166-.006.538-.005.384 0 1.07.005.684.005 1.826.005l-.584 1.69z" fill="#e30613"/><path d="M8.248 57.993q.332.01.656.03.326.017.61.053.285.035.504.088t.338.136q.478.318.67.844.193.525-.033 1.162-.12.343-.344.666-.225.325-.524.602t-.657.496q-.36.217-.729.337 1.365.577.822 2.055a3.2 3.2 0 0 1-.863 1.346q-.596.556-1.418.79-.345.095-.863.148a12 12 0 0 1-1.233.054H0l2.4-6.945a4.2 4.2 0 0 0-.888.33q-.384.201-.636.473a.155.155 0 0 1-.165.06q-.1-.025-.073-.108.436-.742.842-1.258.405-.514.935-.826.532-.313 1.287-.449t1.91-.124l2.652.013-.013.026zM4.92 65.23q.238 0 .418-.011.18-.012.312-.036a1.7 1.7 0 0 0 .491-.166q.279-.153.491-.384.214-.23.291-.478.198-.532-.186-.78a1.1 1.1 0 0 0-.391-.148 4 4 0 0 0-.684-.04h-1.51l-.69 2.043zm1.246-3.614q.477 0 .715-.04.24-.042.478-.172.278-.153.49-.385a1.5 1.5 0 0 0 .305-.478q.185-.532-.198-.78a.6.6 0 0 0-.265-.13v.011H5.37l-.676 1.975h1.472m8.157 2.836q.172.189.357.224 1.128.153 2.228.083a19 19 0 0 0 2.201-.272l-.703 2.184q-1.471.225-2.825.26a17.6 17.6 0 0 1-2.719-.142q-1.167-.13-1.598-.904-.43-.773-.033-2.12.013-.07.04-.164.026-.095.092-.301.067-.207.179-.573.112-.368.318-.986.205-.62.525-1.535l.77-2.214h2.956l-1.67 4.924a7 7 0 0 1-.153.59 2.8 2.8 0 0 0-.112.59q-.027.167.145.355zm15.144-1.889q-.398 1.305-1.022 2.581-.33.65-.982 1.063a3.65 3.65 0 0 1-1.418.532 16.5 16.5 0 0 1-2.48.19q-.45 0-.941-.018a8 8 0 0 1-.969-.095 5 5 0 0 1-.894-.225 2.3 2.3 0 0 1-.723-.401 1.6 1.6 0 0 1-.458-.627q-.15-.373-.1-.903.068-.615.232-1.27.167-.657.385-1.306.218-.65.471-1.27.252-.621.505-1.164.134-.296.444-.603.31-.308.863-.56.55-.255 1.385-.415t2.016-.159q.582 0 1.267.024.683.024 1.299.178t1.094.49q.477.336.65.974v.32q-.225 1.359-.623 2.663zm-3.063-.116q.358-.987.583-2.015.067-.273-.066-.431a.77.77 0 0 0-.366-.237 2.3 2.3 0 0 0-.51-.1 6 6 0 0 0-.478-.024q-.225 0-.49.024t-.511.1-.445.213a.8.8 0 0 0-.29.36 29 29 0 0 0-.743 1.902 20 20 0 0 0-.584 1.985.7.7 0 0 0-.006.42.66.66 0 0 0 .206.306q.145.126.371.183.225.06.491.036.252 0 .578-.017t.623-.089.524-.224a.7.7 0 0 0 .291-.426q.465-.98.822-1.966m6.969 2.033a.65.65 0 0 0 .338.166q1.113.142 2.221.135 1.107-.005 2.195-.195l-.703 2.184q-2.76.377-5.53.107-.624-.06-1.015-.365a2 2 0 0 1-.59-.744 2.8 2.8 0 0 1-.239-.945 3.4 3.4 0 0 1 .053-.957q.106-.495.266-1.133.159-.638.404-1.293t.578-1.282q.33-.626.79-1.116a3.7 3.7 0 0 1 1.04-.785 2.9 2.9 0 0 1 1.327-.294h5.86l-.715 2.113h-4.39a.7.7 0 0 0-.37.1.74.74 0 0 0-.266.254 9 9 0 0 0-.902 1.813 8.7 8.7 0 0 0-.464 1.943q-.026.166.113.294zM38.91 66.8l3.024-8.837h2.918l-1.048 3.048 3.66-3.048h2.785l-5.146 4.04 2.586 4.796h-2.837l-1.75-3.71-1.274 3.71H38.91m12.93-8.836c-.305.992-.876 2.256-1.247 2.8l-.743.082c.293-.697.637-1.925.782-2.775zm37.16.023c0 .677-.596 1.207-1.372 1.207-.767 0-1.38-.53-1.38-1.207 0-.661.612-1.192 1.38-1.192.776 0 1.372.531 1.372 1.192m-2.41 0c0 .531.441.953 1.046.953.588 0 1.02-.422 1.02-.947 0-.53-.433-.96-1.029-.96s-1.037.43-1.037.953zm.826.626h-.31v-1.193q.182-.035.514-.036c.252 0 .367.036.465.087.074.051.13.146.13.263 0 .13-.114.232-.277.276v.015c.13.043.205.13.245.29.041.182.066.255.098.299h-.335c-.04-.044-.065-.153-.106-.291-.024-.13-.106-.189-.277-.189h-.147zm.008-.677h.146c.172 0 .311-.05.311-.174 0-.11-.09-.181-.286-.181a1 1 0 0 0-.171.015v.342z" fill="currentColor"/><defs><linearGradient id="b" x1="45.533" y1="52.099" x2="69.221" y2="11.671" gradientUnits="userSpaceOnUse"><stop stop-color="#e40842"/><stop offset="1" stop-color="#fcc904"/></linearGradient><linearGradient id="d" x1="29.137" y1="-16.257" x2="59.546" y2="50.106" gradientUnits="userSpaceOnUse"><stop stop-color="#9a1918"/><stop offset=".15" stop-color="#e40842"/><stop offset=".46" stop-color="#fced66"/><stop offset=".76" stop-color="#e40842"/><stop offset="1" stop-color="#9a1918"/></linearGradient><linearGradient id="f" x1="43.249" y1="2.113" x2="35.246" y2="24.166" gradientUnits="userSpaceOnUse"><stop stop-color="#fced66"/><stop offset="1" stop-color="#ea5b3a"/></linearGradient><linearGradient id="h" x1="63.508" y1="34.605" x2="15.744" y2="13.65" gradientUnits="userSpaceOnUse"><stop stop-color="#8c1822"/><stop offset="1" stop-color="#e40842"/></linearGradient><linearGradient id="j" x1="58.004" y1="31.919" x2="20.731" y2="22.007" gradientUnits="userSpaceOnUse"><stop stop-color="#441313"/><stop offset=".39" stop-color="#8c1822"/><stop offset="1" stop-color="#f8d82f"/></linearGradient><linearGradient id="l" x1="61.001" y1="38.779" x2="56.572" y2="1.968" gradientUnits="userSpaceOnUse"><stop stop-color="#e40842"/><stop offset="1" stop-color="#fcc904"/></linearGradient><linearGradient id="n" x1="53.673" y1="8.006" x2="51.837" y2="23.62" gradientUnits="userSpaceOnUse"><stop stop-color="#fced66"/><stop offset="1" stop-color="#ea5b3a"/></linearGradient><linearGradient id="p" x1="35.482" y1="-7.794" x2="69.62" y2="46.407" gradientUnits="userSpaceOnUse"><stop stop-color="#9a1918"/><stop offset=".15" stop-color="#e40842"/><stop offset=".46" stop-color="#fced66"/><stop offset=".76" stop-color="#e40842"/><stop offset="1" stop-color="#9a1918"/></linearGradient><linearGradient id="r" x1="74.429" y1="32.685" x2="36.953" y2="25.468" gradientUnits="userSpaceOnUse"><stop stop-color="#8c1822"/><stop offset="1" stop-color="#e40842"/></linearGradient><linearGradient id="t" x1="76.857" y1="46.475" x2="27.674" y2="-6.145" gradientUnits="userSpaceOnUse"><stop stop-color="#441313"/><stop offset=".39" stop-color="#8c1822"/><stop offset="1" stop-color="#f8d82f"/></linearGradient><linearGradient id="v" x1="59.849" y1="47.624" x2="77.572" y2="20.799" gradientUnits="userSpaceOnUse"><stop stop-color="#e40842"/><stop offset="1" stop-color="#fcc904"/></linearGradient><linearGradient id="x" x1="79.5" y1="4.621" x2="45.72" y2="69.471" gradientUnits="userSpaceOnUse"><stop stop-color="#9a1918"/><stop offset=".15" stop-color="#e40842"/><stop offset=".46" stop-color="#fced66"/><stop offset=".76" stop-color="#e40842"/><stop offset="1" stop-color="#9a1918"/></linearGradient><linearGradient id="z" x1="77.343" y1="33.367" x2="48.064" y2="31.082" gradientUnits="userSpaceOnUse"><stop stop-color="#8c1822"/><stop offset="1" stop-color="#e40842"/></linearGradient><linearGradient id="B" x1="77.507" y1="20.292" x2="64.106" y2="41.628" gradientUnits="userSpaceOnUse"><stop stop-color="#fced66"/><stop offset="1" stop-color="#ea5b3a"/></linearGradient><linearGradient id="D" x1="45.672" y1="52.099" x2="69.361" y2="11.671" gradientUnits="userSpaceOnUse"><stop stop-color="#e40842"/><stop offset="1" stop-color="#fcc904"/></linearGradient><linearGradient id="F" x1="29.277" y1="-16.257" x2="59.685" y2="50.106" gradientUnits="userSpaceOnUse"><stop stop-color="#9a1918"/><stop offset=".15" stop-color="#e40842"/><stop offset=".46" stop-color="#fced66"/><stop offset=".76" stop-color="#e40842"/><stop offset="1" stop-color="#9a1918"/></linearGradient><linearGradient id="H" x1="43.388" y1="0" x2="35.384" y2="24.169" gradientUnits="userSpaceOnUse"><stop stop-color="#fced66"/><stop offset="1" stop-color="#ea5b3a"/></linearGradient><linearGradient id="J" x1="63.648" y1="34.605" x2="15.883" y2="13.65" gradientUnits="userSpaceOnUse"><stop stop-color="#8c1822"/><stop offset="1" stop-color="#e40842"/></linearGradient><linearGradient id="L" x1="58.143" y1="31.919" x2="20.87" y2="22.007" gradientUnits="userSpaceOnUse"><stop stop-color="#441313"/><stop offset=".39" stop-color="#8c1822"/><stop offset="1" stop-color="#f8d82f"/></linearGradient><linearGradient id="N" x1="61.141" y1="38.779" x2="56.711" y2="1.968" gradientUnits="userSpaceOnUse"><stop stop-color="#e40842"/><stop offset="1" stop-color="#fcc904"/></linearGradient><linearGradient id="P" x1="53.813" y1="8.006" x2="51.977" y2="23.62" gradientUnits="userSpaceOnUse"><stop stop-color="#fced66"/><stop offset="1" stop-color="#ea5b3a"/></linearGradient><linearGradient id="R" x1="35.621" y1="-7.794" x2="69.759" y2="46.407" gradientUnits="userSpaceOnUse"><stop stop-color="#9a1918"/><stop offset=".15" stop-color="#e40842"/><stop offset=".46" stop-color="#fced66"/><stop offset=".76" stop-color="#e40842"/><stop offset="1" stop-color="#9a1918"/></linearGradient><linearGradient id="T" x1="74.569" y1="32.685" x2="37.092" y2="25.468" gradientUnits="userSpaceOnUse"><stop stop-color="#8c1822"/><stop offset="1" stop-color="#e40842"/></linearGradient><linearGradient id="V" x1="76.997" y1="46.475" x2="27.813" y2="-6.145" gradientUnits="userSpaceOnUse"><stop stop-color="#441313"/><stop offset=".39" stop-color="#8c1822"/><stop offset="1" stop-color="#f8d82f"/></linearGradient><linearGradient id="X" x1="59.99" y1="47.624" x2="77.711" y2="20.799" gradientUnits="userSpaceOnUse"><stop stop-color="#e40842"/><stop offset="1" stop-color="#fcc904"/></linearGradient><linearGradient id="Z" x1="79.639" y1="4.621" x2="45.859" y2="69.471" gradientUnits="userSpaceOnUse"><stop stop-color="#9a1918"/><stop offset=".15" stop-color="#e40842"/><stop offset=".46" stop-color="#fced66"/><stop offset=".76" stop-color="#e40842"/><stop offset="1" stop-color="#9a1918"/></linearGradient><linearGradient id="ab" x1="77.483" y1="33.367" x2="48.203" y2="31.082" gradientUnits="userSpaceOnUse"><stop stop-color="#8c1822"/><stop offset="1" stop-color="#e40842"/></linearGradient><linearGradient id="ad" x1="77.647" y1="20.292" x2="64.245" y2="41.628" gradientUnits="userSpaceOnUse"><stop stop-color="#fced66"/><stop offset="1" stop-color="#ea5b3a"/></linearGradient></defs></svg>
