<svg width="267" height="500" viewBox="0 0 267 500" fill="none" xmlns="http://www.w3.org/2000/svg"><path d="M38.67 494.197q4.592 1.302 9.322 2.465L44.84 500z" fill="#39c"/><path d="M200.218 334.702 47.993 496.668a273 273 0 0 1-9.323-2.465L8.329 465.697v-.458l120.645-128.338-53.378-50.12c18.602-7.401 38.431-12.287 59.362-13.39z" fill="#6cf"/><path d="M134.958 273.39c-20.931 1.097-40.76 5.983-59.362 13.39L.375 216.055l34.504-36.73 100.079 94.072z" fill="#39c"/><path d="M185.543 203.583c-.917 27.547 43.913 42.72-2.88 58.66L64.854 151.679 229.277 0l36.74 34.495-129.919 114.949 50.362 47.24c-.552 2.329-.824 4.614-.917 6.899" fill="#6cf"/><path d="M264.561 269.966v.458l-34.274 36.502-47.618-44.683c46.794-15.947 1.964-31.114 2.88-58.66.093-2.286.366-4.571.917-6.899l78.101 73.282z" fill="#39c"/></svg>
