<svg width="267" height="500" viewBox="0 0 267 500" fill="none" xmlns="http://www.w3.org/2000/svg">
<path d="M38.6695 494.197C41.7296 495.064 44.8393 495.888 47.9923 496.662L44.8393 500L38.6695 494.197Z" fill="#3399CC"/>
<path d="M200.218 334.702L47.9926 496.668C44.8396 495.894 41.7299 495.07 38.6698 494.203L8.32874 465.697V465.239L128.974 336.901L75.5957 286.781C94.198 279.38 114.027 274.494 134.958 273.391L200.218 334.702Z" fill="#66CCFF"/>
<path d="M134.958 273.39C114.027 274.487 94.1979 279.373 75.5956 286.78L0.374817 216.055L34.8786 179.325L134.958 273.397V273.39Z" fill="#3399CC"/>
<path d="M185.543 203.583C184.626 231.13 229.456 246.303 182.663 262.243L64.854 151.679L229.277 0L266.017 34.4951L136.098 149.444L186.46 196.684C185.908 199.013 185.636 201.298 185.543 203.583V203.583Z" fill="#66CCFF"/>
<path d="M264.561 269.966V270.424L230.287 306.926L182.669 262.243C229.463 246.296 184.633 231.129 185.549 203.583C185.642 201.297 185.915 199.012 186.466 196.684L264.567 269.966H264.561Z" fill="#3399CC"/>
</svg>
