<svg width="140" height="48" viewBox="0 0 140 48" fill="none" xmlns="http://www.w3.org/2000/svg"><path d="m129.863 48 6.055-16.518h-20.702L109.242 48z" fill="#e1251b"/><path d="m104.087 48 5.973-16.518H94.594L88.54 48zm-20.702 0 6.055-16.518H79.13L73.074 48zm-15.466 0 6.055-16.518H68.82L62.764 48z" fill="currentColor"/><path d="M0 24.205 10.883 6.542H.491l1.964-5.479h16.448v2.78L7.937 21.507h11.538l-2.045 5.397H0zm41.078-5.315H27.004c.49 2.125 2.046 3.597 4.419 3.597 1.39 0 2.864-.572 3.6-1.799l5.319.981c-1.227 3.271-4.419 5.806-9.001 5.806-5.483 0-9.902-4.497-9.902-10.221 0-5.806 4.42-10.222 10.065-10.222 5.647 0 9.82 4.334 9.82 10.14-.082.736-.164 1.226-.246 1.717m-5.155-3.599c-.654-2.044-2.21-3.434-4.419-3.434-1.8 0-3.764 1.063-4.337 3.434zm20.049-2.534h-4.5v14.147h-5.483V12.756h-2.946V8.014h3.028V5.888C46.153 1.554 49.098 0 53.27 0c.655 0 1.8.082 3.192.327l-.573 4.58c-.9-.164-1.636-.164-2.127-.164-1.964 0-2.373 1.39-2.373 2.862v.572h4.582zm8.264-5.233h-5.482v19.462h5.482zM58.754.082v4.906h5.482V.082zm15.301 14.555c0-.981.818-1.717 1.718-1.717h3.437l1.964-5.316H74.3a5.69 5.69 0 0 0-5.728 5.725v13.655h5.483zm27.332 4.253H87.312c.491 2.125 2.046 3.597 4.42 3.597 1.39 0 2.863-.572 3.6-1.799l5.319.981c-1.228 3.271-4.42 5.806-9.002 5.806-5.482 0-9.901-4.497-9.901-10.221 0-5.806 4.419-10.222 10.065-10.222s9.819 4.334 9.819 10.14c-.081.736-.163 1.226-.245 1.717M96.15 15.29c-.655-2.044-2.21-3.434-4.419-3.434-1.8 0-3.764 1.063-4.337 3.434zm27.002.001v11.612h-5.483v-10.63c0-2.78-1.227-4.17-3.437-4.17-2.454 0-4.009 1.716-4.009 4.578v10.222h-5.483V7.523h3.928l.9 2.208c1.309-1.472 3.601-2.535 6.137-2.535 4.501-.082 7.447 3.107 7.447 8.095m13.911 6.705c-1.718 0-2.782-1.063-2.782-2.862v-6.95h4.665V7.44h-4.747V2.616h-5.4v4.825h-3.192v4.66h3.192v7.769c0 4.497 2.618 7.032 6.955 7.032.491 0 1.637 0 1.882-.081l1.801-4.907h-2.374z" fill="#e1251b"/></svg>
